<svg aria-hidden="true" style="width:0;height:0;position:absolute;overflow:hidden" xmlns="http://www.w3.org/2000/svg"><defs><symbol id="rate-4" viewBox="0 0 173 32"><path fill="#ab816c" style="fill:var(--color1,#ab816c)" d="M14.249 4.68c.383-1.179 2.051-1.179 2.435 0l1.908 5.872a1.28 1.28 0 0 0 1.217.884h6.174c1.24 0 1.756 1.587.752 2.315L21.74 17.38a1.28 1.28 0 0 0-.465 1.431l1.908 5.872c.383 1.179-.967 2.16-1.97 1.431l-4.995-3.629a1.28 1.28 0 0 0-1.505 0l-4.995 3.629c-1.003.729-2.353-.252-1.97-1.431l1.908-5.872a1.28 1.28 0 0 0-.465-1.431l-4.995-3.629c-1.003-.729-.488-2.315.752-2.315h6.174c.555 0 1.046-.357 1.217-.884l1.908-5.872z"/><path fill="none" stroke="#ab816c" style="stroke:var(--color1,#ab816c)" stroke-width="1.28" d="M156.724 4.878c.192-.59 1.027-.59 1.217 0l1.908 5.872a1.919 1.919 0 0 0 1.825 1.327h6.175c.62 0 .878.793.376 1.158l-4.996 3.629a1.924 1.924 0 0 0-.698 2.147l1.908 5.872c.192.59-.484 1.08-.984.716l-4.996-3.629a1.92 1.92 0 0 0-2.257 0l-4.995 3.629c-.502.364-1.176-.126-.986-.716l1.908-5.872a1.92 1.92 0 0 0-.698-2.147l-4.995-3.629c-.502-.364-.244-1.158.376-1.158h6.173c.832 0 1.569-.536 1.827-1.327l1.907-5.872z"/><path fill="#ab816c" style="fill:var(--color1,#ab816c)" d="M120.649 4.68c.383-1.179 2.051-1.179 2.435 0l1.908 5.872a1.28 1.28 0 0 0 1.217.884h6.173c1.24 0 1.756 1.587.753 2.315l-4.995 3.629a1.28 1.28 0 0 0-.465 1.431l1.908 5.872c.384 1.179-.966 2.16-1.969 1.431l-4.995-3.629a1.28 1.28 0 0 0-1.505 0l-4.995 3.629c-1.003.729-2.353-.252-1.97-1.431l1.908-5.872a1.28 1.28 0 0 0-.465-1.431l-4.995-3.629c-1.003-.729-.488-2.315.752-2.315h6.174c.555 0 1.046-.357 1.217-.884l1.908-5.872zM85.183 4.68c.383-1.179 2.052-1.179 2.435 0l1.908 5.872a1.28 1.28 0 0 0 1.217.884h6.174c1.24 0 1.756 1.587.752 2.315l-4.995 3.629a1.28 1.28 0 0 0-.465 1.431l1.908 5.872c.383 1.179-.967 2.16-1.97 1.431l-4.995-3.629a1.28 1.28 0 0 0-1.505 0l-4.995 3.629c-1.003.729-2.353-.252-1.97-1.431l1.908-5.872a1.28 1.28 0 0 0-.465-1.431l-4.995-3.629c-1.003-.729-.488-2.315.752-2.315h6.174c.555 0 1.046-.357 1.217-.884l1.908-5.872zM49.716 4.68c.383-1.179 2.052-1.179 2.435 0l1.908 5.872a1.28 1.28 0 0 0 1.217.884h6.174c1.24 0 1.756 1.587.752 2.315l-4.995 3.629a1.28 1.28 0 0 0-.465 1.431l1.908 5.872c.383 1.179-.967 2.16-1.97 1.431l-4.995-3.629a1.28 1.28 0 0 0-1.505 0l-4.995 3.629c-1.003.729-2.353-.252-1.97-1.431l1.908-5.872a1.28 1.28 0 0 0-.465-1.431l-4.995-3.629c-1.003-.729-.488-2.315.752-2.315h6.174a1.28 1.28 0 0 0 1.217-.884l1.908-5.872z"/></symbol><symbol id="rate-5" viewBox="0 0 181 32"><path fill="#ab816c" style="fill:var(--color1,#ab816c)" d="M14.732 3.903c.399-1.228 2.137-1.228 2.536 0l2.025 6.232c.178.549.69.921 1.268.921h6.552c1.292 0 1.829 1.653.784 2.412l-5.301 3.851a1.333 1.333 0 0 0-.484 1.491l2.025 6.232c.399 1.228-1.007 2.25-2.052 1.491l-5.301-3.851a1.334 1.334 0 0 0-1.567 0l-5.301 3.851c-1.045.759-2.451-.262-2.052-1.491l2.025-6.232a1.335 1.335 0 0 0-.484-1.491l-5.301-3.851c-1.045-.759-.508-2.412.784-2.412h6.552c.578 0 1.09-.372 1.268-.921l2.025-6.232zM164.065 3.903c.399-1.228 2.137-1.228 2.536 0l2.025 6.232c.179.549.689.921 1.268.921h6.552c1.292 0 1.828 1.653.784 2.412l-5.301 3.851a1.333 1.333 0 0 0-.484 1.491l2.024 6.232c.4 1.228-1.007 2.25-2.051 1.491l-5.301-3.851a1.336 1.336 0 0 0-1.568 0l-5.301 3.851c-1.044.759-2.451-.262-2.051-1.491l2.024-6.232a1.334 1.334 0 0 0-.484-1.491l-5.301-3.851c-1.044-.759-.508-2.412.784-2.412h6.552c.579 0 1.089-.372 1.268-.921l2.025-6.232zM126.732 3.903c.399-1.228 2.137-1.228 2.536 0l2.025 6.232c.178.549.69.921 1.268.921h6.552c1.292 0 1.828 1.653.784 2.412l-5.301 3.851a1.333 1.333 0 0 0-.484 1.491l2.024 6.232c.4 1.228-1.007 2.25-2.051 1.491l-5.302-3.851a1.334 1.334 0 0 0-1.567 0l-5.301 3.851c-1.045.759-2.451-.262-2.052-1.491l2.025-6.232a1.334 1.334 0 0 0-.484-1.491l-5.301-3.851c-1.045-.759-.508-2.412.784-2.412h6.552c.578 0 1.09-.372 1.268-.921l2.025-6.232zM89.399 3.903c.399-1.228 2.137-1.228 2.536 0l2.025 6.232c.178.549.69.921 1.268.921h6.552c1.292 0 1.829 1.653.784 2.412l-5.301 3.851a1.333 1.333 0 0 0-.484 1.491l2.025 6.232c.399 1.228-1.007 2.25-2.052 1.491l-5.301-3.851a1.334 1.334 0 0 0-1.567 0l-5.301 3.851c-1.045.759-2.451-.262-2.052-1.491l2.025-6.232a1.334 1.334 0 0 0-.484-1.491l-5.301-3.851c-1.045-.759-.508-2.412.784-2.412h6.552c.578 0 1.09-.372 1.268-.921L89.4 3.903zM52.065 3.903c.399-1.228 2.137-1.228 2.536 0l2.025 6.232c.178.549.69.921 1.268.921h6.552c1.292 0 1.829 1.653.784 2.412l-5.301 3.851a1.333 1.333 0 0 0-.484 1.491l2.025 6.232c.399 1.228-1.007 2.25-2.052 1.491l-5.301-3.851a1.334 1.334 0 0 0-1.567 0l-5.301 3.851c-1.045.759-2.451-.262-2.052-1.491l2.025-6.232a1.334 1.334 0 0 0-.484-1.491l-5.301-3.851c-1.045-.759-.508-2.412.784-2.412h6.552c.578 0 1.09-.372 1.268-.921l2.025-6.232z"/></symbol><symbol id="icon-menu" viewBox="0 0 60 32"><path d="M2 0h56a2 2 0 1 1 0 4H2a2 2 0 1 1 0-4zM2 14h56a2 2 0 1 1 0 4H2a2 2 0 1 1 0-4zM2 28h56a2 2 0 1 1 0 4H2a2 2 0 1 1 0-4z"/></symbol><symbol id="icon-close" viewBox="0 0 32 32"><path d="M30.355 32a1.646 1.646 0 0 0 1.163-2.811L2.811.482A1.646 1.646 0 1 0 .483 2.811L29.19 31.517a1.65 1.65 0 0 0 1.165.483z"/><path d="M1.645 32c.422 0 .843-.16 1.163-.483L31.517 2.811A1.647 1.647 0 0 0 29.188.482L.481 29.189A1.646 1.646 0 0 0 1.644 32z"/></symbol><symbol id="icon-twitter" viewBox="0 0 32 32"><path d="M32 5.441c-1.19.583-2.458.97-3.78 1.158 1.36-.908 2.398-2.334 2.886-4.053a12.307 12.307 0 0 1-4.16 1.775C25.742 2.888 24.026 2 22.154 2c-3.632 0-6.556 3.295-6.556 7.335 0 .581.044 1.14.152 1.672-5.454-.297-10.28-3.219-13.522-7.671a8.059 8.059 0 0 0-.898 3.707c0 2.54 1.17 4.791 2.914 6.095-1.054-.022-2.088-.364-2.964-.903v.08c0 3.564 2.274 6.524 5.256 7.206a5.905 5.905 0 0 1-1.72.241c-.42 0-.844-.027-1.242-.125.85 2.904 3.262 5.039 6.13 5.109-2.232 1.952-5.066 3.128-8.134 3.128-.538 0-1.054-.027-1.57-.101 2.906 2.095 6.35 3.291 10.064 3.291 12.072 0 18.672-11.178 18.672-20.868 0-.324-.01-.637-.024-.948C30.014 8.215 31.108 6.925 32 5.441z"/></symbol><symbol id="icon-facebook" viewBox="0 0 32 32"><path d="M22.512.007 18.895 0c-4.064 0-6.69 3.091-6.69 7.875v3.631H8.568c-.314 0-.569.292-.569.653v5.261c0 .361.255.652.569.652h3.637v13.275c0 .36.254.652.569.652h4.745c.314 0 .569-.292.569-.652V18.072h4.252c.314 0 .569-.292.569-.652l.002-5.261c0-.173-.06-.339-.167-.461s-.252-.191-.402-.191h-4.254V8.429c0-1.479.307-2.23 1.987-2.23l2.437-.001c.314 0 .568-.292.568-.652V.661c0-.36-.254-.652-.568-.652z"/></symbol><symbol id="icon-instagram" viewBox="0 0 32 32"><path d="M16.316 32h-.319c-2.508.006-4.826-.058-7.08-.195-2.066-.126-3.953-.84-5.455-2.065-1.45-1.182-2.44-2.781-2.942-4.75-.438-1.715-.461-3.398-.483-5.026a343.853 343.853 0 0 1-.036-3.96c.003-1.414.02-2.798.036-3.966.022-1.628.045-3.311.483-5.026.503-1.97 1.493-3.568 2.942-4.75C4.965 1.037 6.851.323 8.918.197 11.172.06 13.49-.004 16.004.002c2.509-.005 4.826.058 7.08.195 2.066.126 3.953.84 5.455 2.065 1.45 1.182 2.44 2.781 2.943 4.75.437 1.715.461 3.398.483 5.026.016 1.168.033 2.553.036 3.96v.006c-.003 1.408-.02 2.792-.036 3.96-.022 1.628-.045 3.311-.483 5.026-.503 1.97-1.493 3.568-2.943 4.75-1.502 1.225-3.389 1.939-5.455 2.065-2.159.131-4.376.195-6.768.195zm-.319-2.5c2.468.006 4.733-.056 6.934-.19 1.563-.095 2.917-.602 4.027-1.507 1.026-.837 1.732-1.991 2.1-3.431.364-1.428.385-2.96.406-4.442.016-1.16.032-2.535.036-3.929-.004-1.394-.02-2.769-.036-3.929-.02-1.482-.041-3.015-.406-4.443-.367-1.44-1.074-2.594-2.1-3.431-1.11-.905-2.465-1.412-4.027-1.507a108.807 108.807 0 0 0-6.928-.19c-2.467-.006-4.733.056-6.934.19-1.563.095-2.917.602-4.027 1.507-1.026.837-1.732 1.991-2.1 3.431-.364 1.428-.385 2.96-.406 4.443a363.726 363.726 0 0 0-.036 3.932c.003 1.389.02 2.765.036 3.926.02 1.482.041 3.015.406 4.442.367 1.44 1.074 2.594 2.1 3.431 1.11.905 2.465 1.412 4.027 1.507 2.201.134 4.467.197 6.928.191zm-.06-5.688c-4.308 0-7.813-3.505-7.813-7.812s3.505-7.813 7.813-7.813S23.75 11.692 23.75 16s-3.505 7.812-7.813 7.812zm0-13.125c-2.929 0-5.313 2.383-5.313 5.313s2.383 5.312 5.313 5.312c2.93 0 5.313-2.383 5.313-5.312s-2.383-5.313-5.313-5.313zm8.688-5a1.875 1.875 0 1 0 0 3.75 1.875 1.875 0 0 0 0-3.75z"/></symbol><symbol id="icon-star" viewBox="0 0 34 32"><path fill="none" stroke="#ab816c" style="stroke:var(--color1,#ab816c)" stroke-width="1.684" d="m17.503 3.049 2.51 7.726a2.526 2.526 0 0 0 2.403 1.746h8.124c.816 0 1.155 1.044.495 1.523l-6.572 4.775a2.527 2.527 0 0 0-.918 2.824l2.51 7.726c.252.776-.636 1.421-1.296.942l-6.572-4.775a2.528 2.528 0 0 0-2.97 0l-6.572 4.775c-.66.48-1.548-.166-1.296-.942l2.51-7.726a2.525 2.525 0 0 0-.918-2.824l-6.572-4.775c-.66-.479-.321-1.523.495-1.523h8.124a2.528 2.528 0 0 0 2.403-1.746l2.51-7.726c.252-.776 1.35-.776 1.602 0z"/></symbol><symbol id="icon-star_filled" viewBox="0 0 34 32"><path fill="#ab816c" style="fill:var(--color1,#ab816c)" d="M15.591 2.789c.504-1.552 2.699-1.552 3.204 0l2.51 7.726a1.685 1.685 0 0 0 1.602 1.164h8.124c1.632 0 2.31 2.088.99 3.047l-6.572 4.775a1.685 1.685 0 0 0-.612 1.883l2.51 7.726c.504 1.552-1.272 2.842-2.592 1.883l-6.572-4.775a1.684 1.684 0 0 0-1.98 0l-6.572 4.775c-1.32.959-3.096-.331-2.592-1.883l2.51-7.726a1.685 1.685 0 0 0-.612-1.883l-6.572-4.775c-1.32-.959-.642-3.047.99-3.047h8.124c.73 0 1.376-.47 1.602-1.164l2.51-7.726z"/></symbol><symbol id="icon-chef-hat" viewBox="0 0 32 32"><path d="M23.15 9.631a.456.456 0 0 1-.457-.457 6.692 6.692 0 0 0-11.377-4.645 6.692 6.692 0 0 0-2.007 4.645.455.455 0 0 1-.457.457.455.455 0 0 1-.457-.457 7.608 7.608 0 0 1 15.212 0 .455.455 0 0 1-.457.457z"/><path d="M24.484 19.976a.457.457 0 0 1-.006-.915 6.644 6.644 0 0 0 6.607-6.56 6.64 6.64 0 0 0-6.688-6.574 6.792 6.792 0 0 0-1.992.295.456.456 0 0 1-.268-.874 7.723 7.723 0 0 1 2.26-.336 7.552 7.552 0 0 1 7.602 7.488 7.561 7.561 0 0 1-7.51 7.474h-.005zm-16.969 0H7.51A7.565 7.565 0 0 1 0 12.502a7.552 7.552 0 0 1 7.602-7.488 7.695 7.695 0 0 1 2.26.336.47.47 0 0 1 .275.221.454.454 0 0 1-.191.622.46.46 0 0 1-.352.03 6.792 6.792 0 0 0-1.992-.295 6.64 6.64 0 0 0-6.688 6.574 6.646 6.646 0 0 0 6.607 6.56.455.455 0 0 1 .319.783.465.465 0 0 1-.324.132z"/><path d="M24.485 31.348H7.516a.455.455 0 0 1-.457-.457V19.519a.456.456 0 0 1 .914 0v10.915h16.055V19.519a.456.456 0 0 1 .914 0v11.372a.456.456 0 0 1-.457.457z"/><path d="M27.666 26.918H10.697a.455.455 0 0 1-.457-.457.455.455 0 0 1 .457-.457h16.969a.455.455 0 0 1 .457.457.456.456 0 0 1-.457.457z"/></symbol><symbol id="icon-people" viewBox="0 0 32 32"><path d="M10.936 1.684c-3.395 0-6.161 2.765-6.161 6.161s2.765 6.161 6.161 6.161c3.395 0 6.161-2.765 6.161-6.161s-2.765-6.161-6.161-6.161zm0 11.288c-2.835 0-5.134-2.305-5.134-5.134s2.305-5.134 5.134-5.134c2.835 0 5.134 2.305 5.134 5.134s-2.305 5.134-5.134 5.134zm12.617-8.73c-2.551 0-4.623 2.072-4.623 4.624s2.072 4.624 4.623 4.624 4.623-2.072 4.623-4.624-2.072-4.624-4.623-4.624zm0 8.226c-1.984 0-3.597-1.613-3.597-3.597s1.613-3.597 3.597-3.597 3.597 1.613 3.597 3.597-1.613 3.597-3.597 3.597z"/><path d="M31.824 20.267c-.466-2.809-2.211-5.178-5.184-6.419 0 0-1.317.995-3.086.964-1.934-.038-3.087-.964-3.087-.964s-1.436.535-2.595 1.65c-1.071-.951-2.879-1.726-2.879-1.726s-1.657 1.26-4.063 1.241c-2.526-.019-4.05-1.241-4.05-1.241S1.419 15.649.266 22.017c0 0-1.235 3.376 1.625 8.422h18.097s1.285-2.236 1.512-3.597h9.001c2.211-3.351 1.323-6.576 1.323-6.576zm-12.473 9.146H2.526c-2.198-4.176-1.247-7.225-1.247-7.225a9.758 9.758 0 0 1 5.524-7.257c2.52 1.48 5.751 1.48 8.271 0a9.758 9.758 0 0 1 5.524 7.257c-.006 0 .907 3.754-1.247 7.225zm10.551-3.597h-8.195c.315-1.814-.101-3.798-.101-3.798a10.768 10.768 0 0 0-2.98-5.827 7.34 7.34 0 0 1 1.757-1.184 6.44 6.44 0 0 0 6.331 0 7.34 7.34 0 0 1 4.094 5.43s.75 2.545-.907 5.379z"/></symbol><symbol id="icon-clock" viewBox="0 0 32 32"><path d="M16 0C7.178 0 0 7.178 0 16s7.178 16 16 16 16-7.178 16-16S24.822 0 16 0zm0 30.933C7.766 30.933 1.067 24.234 1.067 16S7.766 1.067 16 1.067 30.933 7.766 30.933 16 24.234 30.933 16 30.933z"/><path d="M16.534 13.878V8.469a.533.533 0 1 0-1.066 0v5.409a2.13 2.13 0 0 0-1.524 1.524h-3.809a.533.533 0 1 0 0 1.066h3.809a2.132 2.132 0 0 0 2.058 1.6 2.135 2.135 0 0 0 2.133-2.133c0-.991-.683-1.819-1.6-2.058zM16 17.002a1.068 1.068 0 0 1 0-2.134 1.068 1.068 0 0 1 0 2.134zm0-11.733a.533.533 0 0 0 .533-.533v-.533a.533.533 0 1 0-1.066 0v.533c0 .295.239.533.533.533zm0 21.333a.533.533 0 0 0-.533.533v.533a.533.533 0 1 0 1.066 0v-.533a.533.533 0 0 0-.533-.533zm11.734-11.2h-.533a.533.533 0 1 0 0 1.066h.533a.533.533 0 1 0 0-1.066zm-22.934 0h-.533a.533.533 0 1 0 0 1.066H4.8a.533.533 0 1 0 0-1.066zm19.119-8.141-.377.377a.532.532 0 0 0 .377.91.532.532 0 0 0 .377-.156l.377-.377a.534.534 0 0 0-.754-.754zM7.704 23.478l-.377.377a.532.532 0 0 0 .377.91.532.532 0 0 0 .377-.156l.377-.377a.534.534 0 0 0-.754-.754zm16.592 0a.533.533 0 1 0-.754.754l.377.377a.532.532 0 1 0 .754-.754l-.377-.377zM8.081 7.261a.533.533 0 1 0-.754.754l.377.377a.532.532 0 1 0 .754-.754l-.377-.377z"/></symbol><symbol id="icon-chat" viewBox="0 0 32 32"><path d="M24.62 16.411c0-5.844-6.16-9.674-12.31-9.674C6.135 6.737 0 10.585 0 16.411c0 2.204.965 4.359 2.718 6.069.067.066.093.165.067.259-.551 2.017-1.855 3.839-2.39 4.529a.69.69 0 0 0-.071.741.69.69 0 0 0 .621.382h.018c2.618-.065 5.653-.804 7.529-2.649a.27.27 0 0 1 .252-.068c1.153.273 2.353.412 3.566.412 6.173 0 12.31-3.847 12.31-9.674zm-15.66 8.35a1.199 1.199 0 0 0-1.125.312c-1.876 1.845-4.939 2.264-6.39 2.357.662-.914 1.74-2.594 2.244-4.444a1.202 1.202 0 0 0-.317-1.177C1.779 20.255.937 18.389.937 16.411c0-4.817 5.102-8.737 11.373-8.737s11.373 3.919 11.373 8.737-5.102 8.737-11.373 8.737c-1.141 0-2.268-.13-3.35-.387z"/><path d="M27.635 24.199C30.368 22.818 32 20.464 32 17.902c0-3.621-3.273-6.714-7.782-7.356a.47.47 0 0 0-.132.928c4.043.575 6.977 3.279 6.977 6.428 0 2.201-1.439 4.242-3.85 5.461a1.16 1.16 0 0 0-.611 1.274c.229 1.074.715 2.069 1.104 2.743-2.768-.461-3.817-1.789-4.149-2.364a1.157 1.157 0 0 0-1.001-.575h-.038c-.52 0-1.04-.036-1.547-.107a.469.469 0 0 0-.13.928c.55.077 1.114.116 1.677.116h.039c.078 0 .151.041.188.106 1.27 2.2 4.188 2.762 5.384 2.901.264.031.516-.09.657-.316s.139-.504-.005-.727c-.36-.561-1.003-1.684-1.262-2.901a.22.22 0 0 1 .117-.242zM5.016 14.734c-.896 0-1.625.729-1.625 1.625s.729 1.625 1.625 1.625 1.625-.729 1.625-1.625-.729-1.625-1.625-1.625zm0 2.312a.688.688 0 1 1 .001-1.375.688.688 0 0 1-.001 1.375zm4.635-2.312c-.896 0-1.625.729-1.625 1.625s.729 1.625 1.625 1.625 1.625-.729 1.625-1.625-.729-1.625-1.625-1.625zm0 2.312a.688.688 0 1 1 .001-1.375.688.688 0 0 1-.001 1.375zm4.634-2.312c-.896 0-1.625.729-1.625 1.625s.729 1.625 1.625 1.625 1.625-.729 1.625-1.625-.729-1.625-1.625-1.625zm0 2.312a.688.688 0 1 1 .001-1.375.688.688 0 0 1-.001 1.375zm4.635-2.312c-.896 0-1.625.729-1.625 1.625s.729 1.625 1.625 1.625 1.625-.729 1.625-1.625-.729-1.625-1.625-1.625zm0 2.312a.688.688 0 1 1 .001-1.375.688.688 0 0 1-.001 1.375z"/></symbol><symbol id="icon-tel" viewBox="0 0 32 32"><path d="M29.43 21.004c-1.959 0-3.882-.306-5.705-.909-.893-.305-1.991-.025-2.536.535l-3.598 2.716c-4.172-2.227-6.743-4.797-8.939-8.938l2.636-3.504a2.585 2.585 0 0 0 .636-2.621 18.192 18.192 0 0 1-.912-5.715A2.57 2.57 0 0 0 8.445 0H2.569A2.57 2.57 0 0 0 .001 2.568C.001 18.797 13.203 32 29.431 32a2.57 2.57 0 0 0 2.568-2.568v-5.86a2.57 2.57 0 0 0-2.568-2.568z"/></symbol><symbol id="icon-location" viewBox="0 0 27 32"><path d="M13.538 0c7.465 0 13.538 5.468 13.538 12.188 0 2.659-.933 5.186-2.701 7.306L14.372 31.622c-.025.029-.063.041-.091.067-.5.482-1.221.361-1.577-.067-2.881-3.46-8.161-9.922-10.191-12.359l-.001-.003-.012-.015C.864 17.176 0 14.736 0 12.188 0 5.468 6.074 0 13.538 0zm0 18.762c4.019 0 7.304-2.957 7.304-6.575s-3.285-6.575-7.304-6.575-7.304 2.957-7.304 6.575 3.285 6.575 7.304 6.575z"/></symbol><symbol id="icon-logo" viewBox="0 0 72 32"><path d="M42.45 15.997c0 .261-.008.521 0 .783.089 2.653-.739 5.043-2.069 7.296a32.692 32.692 0 0 0-1.256 2.314c-.317.649-.757 1.104-1.442 1.37-.382.148-.737.405-1.058.669-1.476 1.218-3.15 2.091-4.941 2.705-1.189.408-2.414.767-3.706.751-.385-.004-.771.114-1.157.115s-.772-.124-1.154-.108c-1.666.071-3.21-.441-4.742-.979-1.673-.586-3.15-1.513-4.539-2.617-1.961-1.558-3.358-3.52-4.385-5.765-.554-1.211-1.004-2.46-1.132-3.804-.021-.223-.095-.444-.161-.66-.466-1.507-.198-2.985.09-4.486.22-1.148.447-2.283.877-3.373 1.135-2.884 2.938-5.245 5.435-7.1C19.191 1.563 21.521.614 24.054.206c2.907-.468 5.744-.131 8.497.963 1.374.548 2.67 1.241 3.802 2.159 1.056.856 2.008 1.858 2.908 2.883.815.928 1.394 2.034 1.911 3.162.807 1.762 1.333 3.586 1.28 5.546-.012.362-.003.721-.003 1.08zm-1.115-3.57c-.081-.616-.131-1.329-.281-2.022-.429-1.992-1.583-3.548-3.121-4.818-.873-.722-1.825-1.349-2.763-1.988-.318-.216-.687-.415-1.058-.481-.954-.176-1.919-.34-2.886-.389-1.678-.085-3.186-.518-4.453-1.685-.933-.858-1.948-.941-2.917-.186-1.099.855-2.349 1.357-3.624 1.854-.934.364-1.833.823-2.731 1.276-.75.379-1.187.971-1.177 1.867.006.503-.225.923-.69 1.201-.388.234-.762.492-1.117.773-.993.781-1.767 1.661-1.934 3.027-.132 1.08-.459 2.148-1.2 3.038a2.032 2.032 0 0 0-.442 1.069c-.068.807-.04 1.625-.02 2.437.006.217.1.451.211.642.256.452.534.891.835 1.315.727 1.01 1.359 2.046 1.505 3.329.141 1.244.742 2.257 1.759 3.03 1.473 1.121 2.892 2.311 4.387 3.402.803.588 1.663 1.102 2.723 1.221s2.098.408 3.048.941c.199.107.418.174.643.197 1.34.144 2.581-.187 3.758-.814.369-.197.749-.375 1.131-.546.92-.412 1.94-.682 2.741-1.255.891-.639 1.845-.923 2.868-1.101.442-.077.803-.259 1.091-.588.344-.39.661-.802 1.019-1.179.37-.389.637-.802.702-1.356.099-.849.463-1.599.924-2.319.781-1.217 1.225-2.562 1.456-3.992.061-.375.095-.692-.091-1.023-.538-.953-.318-2.035-.488-3.049-.086-.548.112-1.148.195-1.832l-.002.001zm-6.47-9.518c-.227-.251-.299-.364-.402-.434-.186-.128-.388-.233-.585-.344-1.687-.95-3.535-1.412-5.423-1.743-.379-.067-.778-.037-1.165-.022-.101.004-.221.102-.285.19-.029.04.037.18.092.248.42.5.968.878 1.585 1.092 1.066.383 2.186.594 3.319.623.48.013.958.104 1.436.169.407.058.814.127 1.428.223zM20.532 30.284c-1.132-.925-2.125-1.752-3.135-2.556a114.272 114.272 0 0 0-2.545-1.951c-.096-.072-.247-.07-.458-.124 1.03 1.728 4.469 4.353 6.138 4.632zM12.903 8.699c.683-.521 1.315-1.07 2.008-1.524.972-.633 1.344-1.421 1.115-2.773-.69.564-1.182 1.244-1.714 1.861-.562.651-.979 1.426-1.448 2.155-.036.059.022.175.039.281zm23.03 19.722c-.637-.044-1.279.069-1.678.412-.758.652-1.661.98-2.578 1.306-.482.171-.936.422-1.39.661-.063.033-.074.209-.061.313.004.035.174.092.244.069.824-.281 1.676-.507 2.456-.883.957-.459 1.856-1.04 2.772-1.579.096-.054.147-.181.236-.299zm-24.337-9.039c-.183.54-.147.838-.032 1.156.319.883.513 1.814 1.089 2.585.213.286.257.925.651.787.347-.12-.059-.627-.083-.968-.091-1.304-.777-2.355-1.625-3.561zm6.179-16.24.086.129c.476-.176.956-.343 1.428-.532 1.024-.41 2.045-.829 3.062-1.254a2.48 2.48 0 0 0 .568-.366c.049-.04.04-.175.025-.258-.008-.037-.105-.078-.161-.08a.997.997 0 0 0-.281.047c-1.383.393-2.688.974-3.936 1.68-.292.165-.529.422-.791.636zm24.296 14.005c.084-.097.149-.138.154-.183.135-1.421-.016-2.829-.21-4.233-.01-.071-.108-.172-.174-.18-.073-.01-.188.051-.233.117a.757.757 0 0 0-.133.352 13.522 13.522 0 0 0 .227 3.46c.044.23.235.432.369.668zm-30.809-3.92c.54-.206.621-.578.678-.915.141-.82.494-1.61.377-2.477-.564 1.035-1.065 2.083-1.055 3.392zm13.066 18.007c-1.21-.535-1.538-.591-2.616-.441.457.173.868.448 1.281.452.431.006.898.534 1.335-.011z"/><path d="M26.823 20.593c-.827-.015-1.396-.361-1.817-1.03-.392-.624-1.044-.947-1.642-1.332-.753-.484-1.366-1.03-1.54-2.012-.12-.665.02-1.243.29-1.769.227-.439.632-.847 1.057-1.108.461-.283.844-.55 1.056-1.073.241-.602.848-.638 1.386-.746.506-.102 1.021-.167 1.521-.295.683-.174 1.303-.12 1.802.411.386.412.836.708 1.338.958.522.26.695.564.531 1.107-.111.369-.004.62.134.914.15.321.305.647.408.986.344 1.128-.052 2.077-1.111 2.58-.656.311-1.159.726-1.322 1.456a.682.682 0 0 1-.509.537c-.524.153-1.055.28-1.583.417zm3.474-4.729c.017-1.987-1.49-3.576-3.45-3.579-1.759 0-3.528 1.189-3.596 3.469-.055 1.824 1.465 3.524 3.447 3.53 2.414.012 3.552-1.663 3.599-3.42zm-7.066 1.9c0-.255.024-.385-.004-.503-.26-1.079-.429-2.148.161-3.188.043-.075-.055-.229-.088-.346-.116.037-.255.045-.343.117-.974.799-1.409 2.718.274 3.92zm3.618-5.977c.408.149.64.255.884.321.898.237 1.664.664 2.197 1.451.105.155.241.385.442.209.107-.094.142-.382.08-.526-.083-.191-.272-.43-.454-.468-.493-.103-.763-.46-1.085-.771-.541-.519-1.144-.682-2.065-.215zm-.055 7.822-.012-.075c-.259 0-.52-.022-.774.009-.131.016-.25.127-.374.195.113.1.211.257.341.29.696.175 1.397.213 2.083-.055.117-.046.248-.106.321-.201.065-.08.086-.223.073-.331-.005-.04-.168-.101-.248-.088-.471.074-.94.167-1.409.254l-.002.001zm3.558-2.038c.482-.089.697-.361.725-.779a7.158 7.158 0 0 0-.015-1.056c-.008-.093-.137-.175-.21-.263-.107.101-.325.238-.305.299.196.609-.213 1.155-.194 1.797v.001zM34.761 20.323c-.028.014-.139.107-.26.12-.11.013-.271-.024-.339-.101a17.095 17.095 0 0 1-.982-1.199c-.08-.109-.113-.401-.067-.426.151-.083.445-.17.511-.098.388.427.729.897 1.079 1.357.034.046.024.125.059.346zM18.351 23.668c.179.014.533.025.878.084.086.015.201.183.201.283s-.099.274-.185.295c-.671.166-1.338.207-1.932-.241a.305.305 0 0 1-.095-.246c.013-.067.117-.16.187-.165.257-.022.516-.01.946-.01zM39.372 9.562l.254.139c-.072.129-.116.336-.221.373a10.45 10.45 0 0 1-1.483.423c-.145.028-.356-.114-.489-.231-.154-.136-.062-.431.132-.461.571-.088 1.147-.155 1.807-.242zM22.297 26.541c.268.125.493.16.602.294.3.372.575.764.822 1.174.12.195.01.406-.192.462-.111.031-.313-.06-.395-.16a12.819 12.819 0 0 1-.909-1.238c-.064-.102.035-.308.071-.532zM32.825 11.018c.017-.114 0-.244.053-.294.072-.066.227-.12.302-.085.102.049.167.182.237.286.194.291.387.584.572.883.083.134.194.276.201.42a.563.563 0 0 1-.174.398c-.056.051-.286.018-.343-.053-.371-.471-.816-.913-.849-1.554zM33.98 6.01c-.08.481-.112.836-.206 1.175a.975.975 0 0 1-.321.465c-.106.086-.292.073-.442.105-.012-.14-.056-.286-.031-.419.078-.41.183-.815.277-1.222.007-.032.005-.065.014-.096.074-.245.234-.432.49-.331.129.051.189.276.219.323zM27.054 9.141c.226.028.518.043.796.111.095.023.236.194.219.268-.029.132-.139.306-.255.345a.974.974 0 0 1-.566.003c-.321-.102-.621-.136-.941-.002-.21.088-.408-.004-.464-.214-.075-.281.136-.417.374-.456.253-.042.515-.035.837-.054zM32.064 22.97c-.091.398-.161.748-.259 1.089-.019.067-.161.157-.22.142-.107-.026-.257-.11-.279-.198a1.307 1.307 0 0 1-.016-.577c.076-.35.15-.682.008-1.039-.067-.171-.048-.444.212-.444.14 0 .342.173.405.316.102.229.109.499.149.71zM28.111 22.868c-.052.093-.078.204-.146.251-.423.291-.847.584-1.292.838-.114.065-.313.025-.458-.018-.212-.063-.257-.342-.08-.455.487-.312.977-.621 1.478-.908.08-.046.241.004.345.055.07.035.1.149.154.237zM22.723 4.155c.069.04.198.075.215.139.168.618.33 1.238.463 1.864.037.174-.193.27-.347.166-.486-.327-.788-1.536-.505-2.042.029-.05.101-.075.174-.128zM28.724 5.911c-.146-.097-.304-.147-.325-.231-.023-.091.053-.247.135-.321a13.57 13.57 0 0 1 1.117-.897c.131-.092.402-.157.502-.085.237.166.112.401-.053.573-.222.231-.442.475-.697.662-.196.141-.447.201-.678.299zM19.489 9.177l-.355.335c-.101-.11-.251-.201-.294-.331a23.988 23.988 0 0 1-.448-1.555c-.018-.072.04-.219.1-.243.098-.04.26-.056.335 0 .147.109.316.254.364.418.127.425.193.87.298 1.377zM15.602 17.757c-.326.596-.573 1.207-1.18 1.533-.102.055-.328-.015-.437-.102-.186-.147 0-.27.09-.395.285-.392.548-.8.85-1.177.078-.097.276-.144.411-.131.092.008.166.164.266.272zM19.282 17.807c.17.098.293.128.316.192.038.106.057.272 0 .346-.093.117-.253.184-.39.263-.356.204-.708.42-1.078.594a.49.49 0 0 1-.418-.035c-.207-.147-.134-.383.032-.487.509-.318 1.043-.596 1.538-.873zM37.698 15.106c-.131.295-.315.74-.533 1.167-.034.066-.245.102-.335.063-.083-.037-.174-.205-.157-.295.088-.475.184-.952.332-1.411.045-.14.248-.267.405-.314.058-.017.209.201.281.334.041.075.007.191.007.457zM15.5 11.562c.576.517.508 1.218.572 1.866.012.12-.138.292-.258.379-.063.046-.317-.028-.323-.07a36.078 36.078 0 0 1-.216-1.971c-.004-.056.131-.125.226-.205zM28.97 27.56c.097.026.192.057.285.093.346.16.695.317 1.032.493.161.083.321.188.437.321.133.154-.019.451-.205.41-.628-.136-1.242-.325-1.712-.794-.07-.069-.068-.243-.045-.358.013-.065.135-.11.208-.165zM21.324 11.751c.033.104.147.265.107.366a23.915 23.915 0 0 1-.704 1.578c-.031.064-.161.12-.238.11-.067-.008-.161-.103-.178-.175-.132-.579.284-1.615.747-1.876.048-.027.124-.004.266-.004zM39.288 20.539c-.072-.046-.223-.102-.301-.209-.031-.043.07-.239.157-.301.387-.281.781-.549 1.192-.789.111-.065.341-.069.423.003.075.067.086.321.018.414-.345.48-.779.846-1.49.883zM36.901 24.67c-.298-.031-.428-.034-.552-.062-.053-.012-.131-.074-.132-.114a.425.425 0 0 1 .068-.259.49.49 0 0 1 .241-.15c.46-.138.919-.276 1.386-.388.101-.024.314.043.328.1.031.137-.006.303-.06.441-.029.073-.142.134-.23.16-.399.11-.8.207-1.049.272zM23.064 21.355c-.033.14-.086.45-.19.742-.026.073-.227.142-.319.116s-.201-.178-.198-.274c.01-.541.037-1.083.092-1.622.012-.118.161-.221.247-.331.103.109.27.205.296.329.058.279.046.573.073 1.039zM44.599 4.422c0-1.146.278-2.016.833-2.608.561-.598 1.28-.898 2.157-.898s1.574.258 2.091.775c.524.516.785 1.342.785 2.475s-.277 1.99-.832 2.57c-.555.579-1.296.869-2.223.869-.801 0-1.457-.23-1.968-.69-.265-.239-.473-.57-.625-.992-.145-.428-.218-.929-.218-1.502zm2.961-3.41c-.637 0-1.16.283-1.57.85-.404.567-.606 1.398-.606 2.494s.192 1.896.577 2.4c.385.504.896.756 1.533.756.643 0 1.167-.283 1.571-.85.41-.573.615-1.401.615-2.485 0-1.09-.195-1.89-.587-2.4a1.827 1.827 0 0 0-1.533-.765zM52.101 7.569h-.785V.955h.785v3.042h3.075V.955h.785v6.614h-.785V4.092h-3.075v3.477zM59.997 7.569h-.123l.823-6.614h.312l1.987 6.113L64.973.955h.312l.823 6.614h-.785l-.653-5.291-1.713 5.291h-.596L60.63 2.344l-.634 5.225zM71.35.955c.12.12.18.274.18.463 0 .157-.035.318-.104.482l-1.694 3.43v2.239h-.785V5.538L67.055.956h.804l1.807 4.261 1.646-3.316c.069-.157.104-.321.104-.491s-.047-.302-.142-.397l.076-.057zM1.334 9.306c.489-.022.967-.033 1.434-.033.478 0 .978.05 1.5.15a5.34 5.34 0 0 1 1.567.566 4.08 4.08 0 0 1 1.317 1.049c.367.422.661.982.884 1.682s.333 1.548.333 2.547c0 .999-.167 1.898-.5 2.697-.322.788-.767 1.393-1.334 1.815-1.1.821-2.429 1.232-3.985 1.232-.545 0-1.117-.022-1.717-.067h-.834V9.306h1.334zm.05 11.505c.233.022.528.033.884.033s.622-.006.8-.017c.178-.011.422-.055.734-.133.311-.089.6-.205.867-.35s.545-.355.834-.633c.3-.289.556-.627.767-1.016.478-.91.717-2.098.717-3.563 0-1.043-.128-1.942-.383-2.697-.256-.766-.55-1.332-.884-1.698a3.443 3.443 0 0 0-1.184-.866c-.467-.222-.839-.35-1.117-.383s-.6-.05-.967-.05-.722.017-1.067.05v11.321zM44.869 20.944h-.216V9.29h.567l6.936 10.772V9.29h.216v11.654h-1.217l-6.286-9.656v9.656zM62.638 9.29h.217v6.66c0 1.743-.344 3.025-1.034 3.846-.689.81-1.589 1.215-2.701 1.215-.7 0-1.295-.061-1.784-.183a3.843 3.843 0 0 1-1.384-.716c-.889-.688-1.333-2.076-1.333-4.162V9.29h1.384v6.643c0 2.02.306 3.369.917 4.046.311.333.634.561.967.683.345.122.756.183 1.234.183 1.067 0 1.917-.388 2.551-1.165.645-.788.967-2.037.967-3.746V9.291zM68.542 20.944h-1.384V9.456h-2.884V9.29h7.169v.166h-2.901v11.488z"/></symbol><symbol id="icon-logo_lg" viewBox="0 0 43 32"><path d="M25.646 15.991c0 .259-.005.517 0 .777.054 2.632-.447 5.003-1.25 7.239-.269.75-.527 1.512-.759 2.296-.191.644-.457 1.095-.871 1.359-.231.147-.445.402-.639.664-.892 1.209-1.903 2.074-2.985 2.684-.719.405-1.458.761-2.239.745-.233-.004-.466.113-.699.114s-.466-.123-.697-.107c-1.007.071-1.939-.438-2.865-.971-1.011-.582-1.903-1.501-2.742-2.597-1.184-1.545-2.028-3.492-2.649-5.72-.334-1.201-.607-2.441-.684-3.774-.013-.221-.058-.44-.097-.655-.282-1.495-.12-2.962.055-4.451.133-1.139.27-2.265.53-3.347.686-2.861 1.775-5.204 3.283-7.045 1.258-1.533 2.665-2.475 4.195-2.88 1.756-.464 3.47-.13 5.133.955a8.977 8.977 0 0 1 2.297 2.142c.638.85 1.213 1.844 1.757 2.86.493.921.842 2.018 1.155 3.137.488 1.748.806 3.558.773 5.502-.007.359-.002.716-.002 1.071zm-.674-3.542c-.049-.611-.079-1.319-.17-2.006-.259-1.977-.956-3.52-1.886-4.78-.528-.716-1.103-1.339-1.67-1.972-.192-.215-.415-.412-.639-.478-.576-.174-1.159-.337-1.743-.386-1.014-.085-1.925-.514-2.69-1.672-.563-.851-1.177-.934-1.763-.184-.664.849-1.419 1.347-2.189 1.84-.564.361-1.108.817-1.65 1.266-.453.377-.717.964-.711 1.853.004.499-.136.915-.417 1.192a7.56 7.56 0 0 0-.675.767c-.6.775-1.068 1.649-1.169 3.004-.08 1.072-.277 2.131-.725 3.014-.15.304-.242.672-.267 1.06-.041.801-.024 1.612-.012 2.418.003.216.06.447.128.637a19 19 0 0 0 .504 1.305c.439 1.003.821 2.03.91 3.303.085 1.234.448 2.239 1.063 3.006.89 1.112 1.747 2.293 2.65 3.375.485.584 1.005 1.094 1.645 1.212s1.268.404 1.842.934c.12.106.252.173.388.196.81.143 1.559-.186 2.27-.808.223-.195.453-.372.683-.542.556-.408 1.172-.677 1.656-1.245.538-.634 1.114-.915 1.732-1.093.267-.077.485-.257.659-.583.207-.387.399-.796.616-1.17.224-.386.385-.796.424-1.346.06-.843.28-1.586.558-2.301.472-1.208.74-2.542.879-3.961.037-.372.058-.687-.055-1.015-.325-.945-.192-2.019-.295-3.025-.052-.544.068-1.139.118-1.817l-.001.001zm-3.908-9.444c-.137-.249-.181-.361-.243-.431-.112-.127-.234-.231-.354-.341-1.019-.942-2.136-1.401-3.276-1.73-.229-.066-.47-.037-.704-.022-.061.004-.133.101-.172.188-.018.04.022.179.056.246.254.496.585.871.958 1.083.644.38 1.321.589 2.005.618.29.013.579.103.867.168.246.057.492.126.862.221zm-8.66 27.161c-.684-.918-1.284-1.738-1.894-2.536a83.78 83.78 0 0 0-1.538-1.936c-.058-.072-.149-.07-.276-.123.622 1.715 2.7 4.32 3.708 4.596zM7.795 8.75c.413-.517.794-1.062 1.213-1.512.588-.628.812-1.41.673-2.751-.417.56-.714 1.234-1.036 1.846-.34.646-.592 1.415-.875 2.138-.022.059.014.174.024.279zm13.914 19.567c-.385-.043-.772.068-1.014.409-.458.647-1.003.972-1.558 1.296-.291.17-.566.419-.84.656-.038.033-.045.207-.037.31.003.034.105.091.148.068.498-.278 1.012-.503 1.484-.875.578-.455 1.121-1.032 1.674-1.567.058-.053.089-.179.143-.297zM7.006 19.349c-.111.535-.089.832-.019 1.147.193.876.31 1.8.658 2.565.129.284.155.918.393.781.209-.119-.036-.622-.05-.96-.055-1.294-.469-2.337-.982-3.533zm3.733-16.113.052.128c.288-.175.578-.341.862-.528.619-.407 1.235-.822 1.85-1.245.124-.086.238-.224.343-.363.03-.04.024-.174.015-.256-.005-.037-.063-.077-.097-.08a.404.404 0 0 0-.17.046c-.836.39-1.624.966-2.378 1.666-.176.164-.32.419-.478.631zm14.678 13.896c.05-.096.09-.137.093-.182.082-1.41-.009-2.807-.127-4.2-.006-.07-.065-.17-.105-.179-.044-.01-.114.051-.141.116a1.069 1.069 0 0 0-.08.349 21.94 21.94 0 0 0 .137 3.433c.027.228.142.429.223.663zm-18.613-3.89c.326-.204.375-.574.41-.907.085-.814.298-1.597.228-2.458-.341 1.027-.643 2.067-.638 3.365zm7.893 17.867c-.731-.531-.929-.587-1.58-.438.276.172.524.444.774.449.26.007.542.53.807-.011z"/><path d="M16.205 20.551c-.5-.015-.843-.358-1.098-1.022-.237-.619-.631-.94-.992-1.321-.455-.48-.825-1.022-.93-1.996a4.207 4.207 0 0 1 .175-1.755c.137-.436.382-.841.639-1.1.279-.281.51-.546.638-1.065.146-.597.513-.633.837-.741.306-.101.617-.166.919-.293.413-.173.787-.119 1.088.408.233.409.505.702.808.951.315.258.42.559.321 1.098-.067.366-.002.615.081.907.091.318.184.642.247.978.208 1.119-.031 2.061-.671 2.56-.397.309-.7.72-.799 1.444-.04.292-.15.457-.307.533-.316.152-.637.277-.957.413zm2.099-4.692c.01-1.972-.9-3.548-2.084-3.551-1.062 0-2.131 1.18-2.173 3.441-.033 1.81.885 3.496 2.083 3.502 1.458.012 2.146-1.65 2.174-3.393zm-4.269 1.885c0-.253.015-.382-.002-.499-.157-1.071-.259-2.132.097-3.163.026-.074-.033-.227-.053-.343-.07.037-.154.045-.207.116-.588.793-.851 2.696.166 3.889zm2.186-5.93c.246.148.387.253.534.318.542.236 1.005.659 1.327 1.44.064.154.146.382.267.207.065-.094.086-.379.049-.522-.05-.19-.164-.427-.274-.464-.298-.102-.461-.457-.655-.765-.327-.515-.691-.676-1.247-.214zm-.034 7.761-.007-.074c-.156 0-.314-.022-.468.009-.079.016-.151.126-.226.194.068.099.128.255.206.287.42.174.844.211 1.259-.055a.496.496 0 0 0 .194-.199.735.735 0 0 0 .044-.328c-.003-.04-.101-.1-.15-.087-.285.073-.568.166-.851.252l-.001.001zm2.15-2.022c.291-.089.421-.358.438-.773.013-.349.009-.699-.009-1.048-.005-.092-.083-.174-.127-.261-.065.101-.196.236-.184.296.118.605-.129 1.146-.117 1.783v.001zM21 20.283c-.017.014-.084.107-.157.119a.206.206 0 0 1-.205-.1 18.039 18.039 0 0 1-.593-1.189c-.049-.108-.068-.398-.041-.423.091-.082.269-.168.308-.097.234.424.44.89.652 1.347.021.046.014.124.036.343zM11.087 23.602c.108.014.322.025.53.084.052.015.121.181.121.281s-.06.271-.112.293c-.405.165-.809.206-1.167-.239-.02-.031-.036-.069-.046-.112s-.014-.088-.011-.133c.008-.066.071-.159.113-.164.156-.021.312-.01.572-.01zM23.786 9.606l.153.138c-.043.128-.07.333-.133.37a4.565 4.565 0 0 1-.896.419c-.088.028-.215-.113-.296-.23-.093-.135-.038-.428.08-.457.345-.087.693-.154 1.092-.24zM13.47 26.452c.162.124.298.159.364.292.181.369.347.759.497 1.165.073.193.006.403-.116.458-.067.031-.189-.059-.239-.159a14.339 14.339 0 0 1-.549-1.228c-.039-.102.021-.305.043-.528zM19.831 11.051c.01-.113 0-.242.032-.292.044-.065.137-.119.182-.084.061.048.101.18.143.284.117.289.234.579.346.876.05.133.117.274.121.417a.756.756 0 0 1-.105.394c-.034.051-.173.018-.207-.053-.224-.468-.493-.905-.513-1.542zM20.528 6.082c-.049.478-.068.829-.124 1.166a1.108 1.108 0 0 1-.194.461c-.064.085-.176.073-.267.104-.007-.139-.034-.284-.018-.415.047-.407.111-.809.167-1.212.004-.031.003-.065.009-.096.045-.244.141-.429.296-.328.078.051.114.274.132.321zM16.344 9.188c.136.028.313.043.481.11.058.023.142.193.133.266-.017.131-.084.303-.154.342a.37.37 0 0 1-.342.003c-.194-.101-.375-.135-.569-.002-.127.088-.247-.004-.281-.212-.045-.279.082-.414.226-.453.153-.042.311-.035.505-.053zM19.371 22.909c-.055.395-.097.742-.157 1.081-.012.067-.097.156-.133.141-.065-.026-.155-.109-.168-.196a2.154 2.154 0 0 1-.01-.573c.046-.347.091-.677.005-1.031-.041-.17-.029-.441.128-.44.085 0 .207.172.245.314.062.227.066.495.09.705zM16.983 22.808c-.032.093-.047.202-.088.249-.256.289-.512.579-.78.832-.069.064-.189.025-.277-.018-.128-.062-.155-.34-.049-.452.294-.309.59-.616.893-.901.049-.046.146.004.208.055.042.035.061.148.093.235zM13.728 4.242c.041.04.12.075.13.138.101.613.199 1.229.28 1.85.022.172-.117.268-.21.165-.293-.324-.476-1.524-.305-2.026.018-.05.061-.075.105-.127zM17.353 5.984c-.088-.097-.184-.146-.197-.23a.558.558 0 0 1 .081-.318c.215-.316.44-.613.675-.89.079-.091.243-.156.303-.084.143.165.068.398-.032.568-.134.23-.267.472-.421.657-.118.14-.27.2-.41.297zM11.774 9.224l-.214.333c-.061-.109-.152-.199-.178-.329a36.504 36.504 0 0 1-.271-1.543c-.011-.071.024-.217.061-.242.059-.04.157-.056.202 0 .089.108.191.252.22.414.076.422.117.863.18 1.366zM9.426 17.737c-.197.592-.346 1.198-.713 1.521-.062.054-.198-.015-.264-.102-.112-.146 0-.267.055-.392.172-.388.331-.794.514-1.167a.253.253 0 0 1 .248-.13c.055.008.1.163.16.27zM11.649 17.787c.103.098.177.127.191.191.023.105.035.27 0 .343-.056.116-.153.183-.236.261-.215.203-.428.416-.651.589-.068.053-.192.037-.252-.034-.125-.146-.081-.38.019-.483.307-.316.63-.592.929-.866zM22.775 15.107c-.079.293-.19.734-.322 1.158-.02.066-.148.101-.202.062-.05-.037-.105-.203-.095-.293.053-.472.111-.945.2-1.4a.497.497 0 0 1 .244-.312c.035-.017.126.199.17.331.025.074.004.189.004.453zM9.364 11.59c.348.513.307 1.209.345 1.851.007.119-.083.29-.156.377-.038.045-.192-.027-.195-.069a60.31 60.31 0 0 1-.131-1.955c-.003-.056.079-.124.136-.203zM17.502 27.464c.058.025.116.056.172.092.209.159.42.314.624.489.097.083.194.186.264.318.08.153-.011.447-.124.407-.38-.135-.75-.322-1.034-.788-.042-.069-.041-.241-.027-.356.008-.065.081-.109.126-.164zM12.883 11.778c.02.103.089.263.065.363-.127.531-.275 1.05-.425 1.566-.018.063-.097.119-.144.109-.041-.008-.097-.102-.108-.174-.08-.574.171-1.602.451-1.861.029-.027.075-.004.161-.004zM23.735 20.497c-.044-.045-.135-.101-.182-.208-.019-.043.042-.237.095-.299.233-.279.472-.545.72-.783.067-.064.206-.069.256.003.045.067.052.318.011.411-.208.476-.471.839-.9.876zM22.293 24.596c-.18-.031-.258-.034-.333-.061-.032-.012-.079-.073-.08-.113a.655.655 0 0 1 .041-.257.324.324 0 0 1 .146-.149c.278-.137.555-.274.837-.385.061-.024.19.042.198.099.018.136-.004.3-.036.438-.017.072-.086.133-.139.159-.241.109-.483.206-.634.269zM13.934 21.307c-.02.139-.052.447-.115.737-.016.072-.137.141-.193.115s-.121-.177-.12-.271c.006-.537.022-1.075.055-1.609.007-.117.097-.219.149-.328.062.108.163.203.179.327.035.277.028.568.044 1.03zM26.944 4.507c0-1.137.168-2 .503-2.587.339-.594.774-.891 1.303-.891s.951.256 1.263.769c.316.512.475 1.331.475 2.456s-.168 1.975-.503 2.55c-.335.575-.783.862-1.343.862-.484 0-.88-.228-1.189-.684-.16-.237-.286-.566-.377-.984a7.429 7.429 0 0 1-.131-1.49zm1.789-3.384c-.385 0-.701.281-.949.844-.244.562-.366 1.387-.366 2.475s.116 1.881.349 2.381c.232.5.541.75.926.75.389 0 .705-.281.949-.844.248-.569.371-1.391.371-2.465 0-1.081-.118-1.875-.354-2.381-.232-.506-.541-.759-.926-.759zM31.476 7.628h-.474V1.066h.474v3.018h1.858V1.066h.475v6.562h-.475v-3.45h-1.858v3.45zM36.247 7.628h-.074l.497-6.562h.189l1.2 6.065 1.195-6.065h.189l.497 6.562h-.475l-.394-5.249-1.034 5.249h-.36l-1.046-5.184-.383 5.184zM43.105 1.066a.876.876 0 0 1 .109.459c0 .156-.021.316-.063.478l-1.023 3.403v2.222h-.474V5.613l-1.143-4.546h.486l1.092 4.228.994-3.29c.042-.156.063-.319.063-.487s-.028-.3-.086-.394l.046-.056zM.806 9.352c.295-.022.584-.033.866-.033.289 0 .591.05.906.149.322.099.638.286.947.562.316.264.581.611.796 1.041.222.418.4.975.534 1.668s.201 1.536.201 2.527c0 .991-.101 1.883-.302 2.676-.195.782-.463 1.382-.806 1.801-.665.815-1.467 1.222-2.407 1.222a8.61 8.61 0 0 1-1.037-.066H0V9.352h.806zm.03 11.415c.141.022.319.033.534.033s.376-.006.483-.017a1.74 1.74 0 0 0 .443-.132c.188-.088.363-.204.524-.347s.329-.352.504-.628c.181-.286.336-.622.463-1.008.289-.903.433-2.081.433-3.535 0-1.035-.077-1.927-.232-2.676-.154-.76-.332-1.322-.534-1.685a2.544 2.544 0 0 0-.715-.859c-.282-.22-.507-.347-.675-.38s-.363-.05-.584-.05a4.12 4.12 0 0 0-.645.05v11.233zM27.107 20.899h-.131V9.336h.342l4.19 10.688V9.336h.131v11.563h-.735l-3.797-9.581v9.581zM37.842 9.336h.131v6.608c0 1.729-.208 3.001-.624 3.816-.416.804-.96 1.206-1.632 1.206-.423 0-.782-.061-1.078-.182-.296-.132-.574-.369-.836-.71-.537-.683-.806-2.059-.806-4.13V9.336h.836v6.591c0 2.004.185 3.342.554 4.014.188.33.383.556.584.677.208.121.456.182.745.182.645 0 1.158-.385 1.541-1.156.389-.782.584-2.021.584-3.717V9.336zM41.409 20.899h-.836V9.501h-1.742v-.165h4.331v.165h-1.753v11.398z"/></symbol><symbol id="icon-logo_sm" viewBox="0 0 61 32"><path d="M36.463 15.997c0 .261-.007.521 0 .783.077 2.653-.635 5.043-1.777 7.296a34.833 34.833 0 0 0-1.079 2.314c-.272.649-.65 1.104-1.239 1.37-.328.148-.633.405-.908.669-1.268 1.218-2.706 2.091-4.244 2.705-1.022.408-2.074.767-3.183.751-.331-.004-.662.114-.994.115s-.663-.124-.991-.108c-1.431.071-2.757-.441-4.073-.979-1.437-.587-2.705-1.513-3.899-2.617-1.684-1.558-2.884-3.52-3.766-5.765-.475-1.211-.863-2.46-.972-3.804-.018-.223-.082-.444-.138-.66-.4-1.507-.17-2.985.078-4.486.189-1.148.384-2.283.753-3.373.975-2.884 2.523-5.245 4.668-7.1C16.487 1.563 18.488.614 20.664.206c2.497-.468 4.934-.131 7.299.963 1.18.548 2.293 1.241 3.266 2.159.907.856 1.725 1.858 2.498 2.883.7.928 1.198 2.034 1.642 3.162.694 1.762 1.145 3.586 1.1 5.546-.01.362-.003.721-.003 1.08zm-.959-3.57c-.069-.616-.112-1.329-.242-2.022-.368-1.992-1.36-3.548-2.681-4.818-.75-.722-1.568-1.349-2.374-1.988-.273-.216-.59-.415-.909-.481-.819-.176-1.648-.34-2.479-.389-1.441-.085-2.736-.518-3.825-1.685-.801-.858-1.673-.941-2.506-.186-.944.855-2.018 1.357-3.112 1.854-.802.364-1.575.823-2.346 1.276-.644.379-1.02.971-1.011 1.867.005.503-.193.923-.593 1.201a9.358 9.358 0 0 0-.96.773c-.853.781-1.518 1.662-1.662 3.027-.113 1.08-.394 2.148-1.031 3.038a2.23 2.23 0 0 0-.38 1.069c-.059.807-.035 1.625-.017 2.437a1.6 1.6 0 0 0 .181.642c.22.452.459.891.717 1.315.624 1.011 1.168 2.046 1.293 3.329.121 1.244.638 2.257 1.511 3.03 1.265 1.121 2.484 2.311 3.768 3.402.69.588 1.429 1.102 2.339 1.221s1.802.408 2.618.941c.171.107.359.174.552.197 1.151.144 2.217-.187 3.228-.814.317-.197.643-.375.972-.546.79-.412 1.666-.682 2.354-1.255.766-.639 1.584-.923 2.463-1.101.38-.077.69-.26.937-.588.295-.39.568-.802.875-1.179.318-.389.547-.802.603-1.356.085-.849.397-1.599.794-2.319.671-1.217 1.052-2.562 1.25-3.992.052-.375.082-.692-.078-1.023-.462-.953-.273-2.035-.419-3.049-.074-.548.096-1.148.168-1.832l-.002.001zm-5.556-9.518c-.195-.251-.257-.364-.345-.434-.159-.128-.333-.233-.503-.344-1.449-.95-3.036-1.412-4.658-1.743-.326-.067-.668-.037-1.001-.022-.087.004-.19.102-.245.19-.025.04.031.18.079.248.361.5.831.878 1.361 1.092a7.992 7.992 0 0 0 2.851.623c.412.013.823.104 1.233.169.35.058.699.127 1.226.223zM17.636 30.284c-.973-.925-1.825-1.752-2.693-2.556-.718-.666-1.452-1.309-2.186-1.952-.082-.072-.213-.07-.393-.124.885 1.728 3.839 4.354 5.272 4.632zM11.083 8.699c.587-.521 1.129-1.07 1.725-1.524.835-.633 1.155-1.421.957-2.773-.593.564-1.015 1.244-1.473 1.861-.483.651-.841 1.426-1.244 2.155-.031.059.019.175.034.281zm19.782 19.722c-.547-.044-1.098.069-1.441.412-.651.652-1.426.98-2.215 1.306-.414.171-.804.422-1.194.661-.054.033-.064.209-.053.313.004.035.15.092.21.069.708-.281 1.439-.507 2.11-.883.822-.459 1.594-1.04 2.381-1.579.082-.054.126-.181.203-.299zM9.96 19.381c-.157.54-.126.838-.027 1.156.274.883.441 1.814.935 2.585.183.286.221.925.559.787.298-.12-.051-.627-.071-.968-.078-1.304-.667-2.355-1.396-3.561zm5.308-16.239.073.129c.409-.176.822-.343 1.226-.532.88-.41 1.756-.829 2.63-1.254a2.12 2.12 0 0 0 .488-.366c.042-.04.035-.175.021-.258-.007-.037-.09-.078-.138-.08a.753.753 0 0 0-.242.047c-1.188.393-2.309.974-3.381 1.68-.251.165-.454.422-.679.636zm20.868 14.005c.072-.097.128-.138.132-.183.116-1.421-.014-2.829-.181-4.233-.008-.071-.092-.172-.15-.18-.063-.01-.161.051-.2.117a.831.831 0 0 0-.114.352 15.706 15.706 0 0 0 .195 3.46c.038.23.201.432.317.668zm-26.463-3.92c.464-.206.533-.578.583-.915.121-.82.424-1.61.324-2.477-.485 1.035-.915 2.084-.906 3.392zm11.223 18.007c-1.04-.535-1.321-.591-2.247-.441.392.173.745.448 1.1.452.37.006.771.534 1.147-.011z"/><path d="M23.04 20.593c-.711-.015-1.199-.361-1.561-1.03-.337-.624-.897-.947-1.41-1.332-.647-.484-1.173-1.031-1.323-2.012a3.082 3.082 0 0 1 .249-1.769c.195-.439.543-.847.908-1.108.396-.283.725-.55.907-1.073.207-.602.729-.638 1.191-.747.435-.102.877-.167 1.306-.295.587-.174 1.119-.12 1.547.411.331.412.718.708 1.149.958.448.26.597.564.456 1.107-.096.369-.003.62.115.914.129.321.262.647.351.986.295 1.128-.044 2.077-.954 2.58-.564.311-.995.726-1.136 1.456-.056.294-.214.461-.437.537-.45.153-.906.28-1.36.417zm2.984-4.729c.015-1.987-1.28-3.576-2.963-3.579-1.511 0-3.03 1.189-3.089 3.469-.047 1.824 1.259 3.524 2.961 3.53 2.073.012 3.051-1.663 3.091-3.42zm-6.069 1.9c0-.255.021-.385-.003-.503-.223-1.079-.368-2.148.138-3.188.037-.075-.048-.229-.076-.346-.099.037-.219.045-.295.117-.837.799-1.21 2.718.236 3.92zm3.107-5.977c.35.149.55.255.759.321.771.238 1.429.664 1.887 1.451.09.155.207.385.38.209.092-.094.122-.382.069-.526-.071-.191-.234-.43-.39-.468-.424-.103-.656-.46-.932-.771-.464-.519-.983-.682-1.773-.215zm-.048 7.822-.01-.075c-.222 0-.446-.022-.665.009-.113.016-.215.127-.321.195.097.1.181.257.293.29.598.175 1.2.213 1.789-.055.101-.046.213-.106.276-.201.056-.08.074-.223.063-.331-.004-.04-.144-.101-.213-.088-.405.074-.808.167-1.21.254l-.002.001zm3.056-2.038c.414-.089.599-.361.623-.779a8.268 8.268 0 0 0-.013-1.056c-.007-.093-.118-.175-.181-.263-.092.101-.279.238-.262.299.168.609-.183 1.155-.167 1.797v.001zM29.858 20.323c-.024.014-.12.107-.224.12-.095.013-.233-.024-.291-.101-.294-.386-.58-.783-.843-1.199-.069-.109-.097-.401-.058-.426.129-.083.382-.17.439-.098.333.427.626.897.927 1.357.029.046.02.125.051.346zM15.763 23.668c.154.014.458.025.754.084.074.015.173.183.173.283s-.085.274-.159.295c-.576.167-1.15.207-1.66-.241a.336.336 0 0 1-.081-.246c.011-.067.1-.16.16-.165.221-.022.443-.01.812-.01zM33.818 9.562l.218.139c-.062.129-.1.336-.19.373a8.05 8.05 0 0 1-1.273.423c-.125.028-.305-.114-.42-.232-.132-.136-.053-.431.114-.461.491-.088.985-.155 1.552-.242zM19.152 26.541c.23.125.423.16.518.294.258.372.494.764.706 1.174.104.195.009.406-.165.462-.096.031-.269-.06-.339-.16a12.73 12.73 0 0 1-.78-1.238c-.055-.102.03-.308.061-.532zM28.195 11.018c.014-.114 0-.244.046-.294.062-.066.195-.12.259-.085.087.049.144.182.204.286.167.291.332.584.491.883.071.134.167.276.173.42a.612.612 0 0 1-.149.398c-.048.051-.246.018-.294-.053-.319-.471-.701-.913-.729-1.554zM29.187 6.01c-.069.481-.097.836-.177 1.175a.984.984 0 0 1-.276.465c-.091.086-.251.073-.38.105-.01-.14-.048-.286-.026-.419.067-.41.157-.815.238-1.222.006-.032.004-.065.012-.096.064-.245.201-.432.421-.331.111.051.163.276.188.323zM23.238 9.141c.194.028.445.043.684.111.082.023.203.194.188.268-.025.132-.119.306-.219.345a.724.724 0 0 1-.486.003c-.276-.102-.533-.136-.808-.002-.181.088-.351-.004-.399-.214-.064-.281.117-.417.321-.456.217-.042.442-.035.719-.054zM27.541 22.97c-.078.398-.138.748-.223 1.089-.017.067-.138.157-.189.142-.092-.026-.221-.11-.239-.198a1.534 1.534 0 0 1-.014-.577c.065-.35.129-.682.007-1.039-.058-.171-.041-.444.182-.444.12 0 .294.173.348.316.088.229.094.499.128.71zM24.146 22.868c-.045.093-.067.204-.126.251-.363.291-.727.584-1.11.838-.098.065-.269.025-.394-.018-.183-.063-.22-.342-.069-.455.418-.312.839-.621 1.27-.908.069-.046.207.004.296.055.06.035.086.149.132.237zM19.517 4.155c.059.04.17.075.185.139.144.618.283 1.238.398 1.864.032.174-.166.27-.298.166-.417-.327-.677-1.536-.434-2.042.025-.05.087-.075.149-.128zM24.672 5.911c-.126-.097-.261-.147-.279-.231-.02-.091.045-.247.116-.321.306-.318.626-.618.959-.897.112-.092.345-.157.431-.085.204.166.097.401-.045.573-.19.231-.38.475-.599.662-.168.141-.384.201-.582.299zM16.74 9.177l-.305.335c-.087-.11-.216-.201-.253-.331a27.141 27.141 0 0 1-.385-1.555c-.016-.072.034-.219.086-.244.085-.04.224-.056.288 0 .127.109.271.254.313.418.109.425.166.87.256 1.377zM13.401 17.757c-.28.596-.492 1.207-1.013 1.533-.088.055-.282-.015-.375-.102-.159-.147 0-.27.078-.395.245-.392.471-.8.73-1.177.067-.097.237-.144.353-.131.079.008.143.164.228.272zM16.562 17.808c.146.098.252.128.272.192.032.106.049.272 0 .346-.08.117-.217.184-.335.263-.306.204-.608.42-.926.594a.37.37 0 0 1-.359-.035c-.178-.147-.115-.383.028-.487.437-.318.896-.596 1.321-.873zM32.381 15.106c-.112.295-.27.74-.458 1.167-.029.066-.21.102-.287.063-.071-.037-.149-.205-.135-.295.075-.475.158-.952.285-1.411.039-.14.213-.267.347-.314.05-.017.18.2.242.334.035.075.006.191.006.457zM13.314 11.562c.495.517.436 1.218.491 1.866.01.12-.118.292-.221.379-.054.046-.273-.028-.278-.07a43.071 43.071 0 0 1-.186-1.971c-.004-.056.112-.125.194-.205zM24.883 27.56a2.2 2.2 0 0 1 .245.093c.297.16.597.316.887.493.138.083.276.188.375.321.114.154-.016.451-.176.41-.54-.136-1.067-.325-1.47-.794-.06-.069-.058-.243-.039-.358.011-.065.116-.11.179-.165zM18.316 11.751c.029.104.127.265.092.366a26.468 26.468 0 0 1-.604 1.578c-.026.064-.138.12-.204.11-.058-.008-.138-.103-.153-.175-.113-.579.244-1.615.641-1.876.041-.027.107-.004.228-.004zM33.746 20.539c-.062-.046-.191-.102-.259-.209-.027-.043.06-.239.135-.301.332-.281.671-.549 1.024-.789.095-.065.293-.069.363.003.065.067.074.321.016.414-.296.48-.669.846-1.279.883zM31.696 24.67c-.256-.031-.367-.034-.474-.062-.045-.012-.112-.074-.113-.114a.49.49 0 0 1 .058-.259.417.417 0 0 1 .207-.15c.395-.138.79-.276 1.19-.388.087-.024.27.043.282.1a.933.933 0 0 1-.051.441c-.024.073-.122.134-.197.16-.343.11-.687.207-.902.272zM19.811 21.355c-.028.14-.074.45-.163.743-.022.073-.195.142-.274.116s-.172-.178-.17-.274c.008-.541.031-1.083.079-1.622.01-.117.138-.221.212-.331.088.109.232.205.254.329.05.279.039.573.062 1.039zM38.308 4.422c0-1.146.238-2.016.715-2.608.482-.598 1.1-.898 1.853-.898s1.352.258 1.796.775c.45.516.675 1.342.675 2.475s-.238 1.99-.715 2.57c-.477.579-1.113.869-1.91.869-.688 0-1.251-.23-1.69-.69-.228-.239-.406-.57-.536-.992-.125-.428-.187-.929-.187-1.502zm2.544-3.41c-.547 0-.997.283-1.349.85-.347.567-.52 1.398-.52 2.494s.165 1.896.496 2.4c.331.504.769.756 1.316.756.553 0 1.002-.283 1.349-.85.352-.573.528-1.401.528-2.485 0-1.09-.168-1.89-.504-2.4-.331-.51-.769-.765-1.316-.765zM44.752 7.569h-.674V.955h.674v3.042h2.641V.955h.675v6.614h-.675V4.092h-2.641v3.477zM51.534 7.569h-.106l.707-6.614h.268l1.707 6.113L55.808.955h.268l.707 6.614h-.675l-.561-5.291-1.471 5.291h-.512l-1.487-5.225-.544 5.225zM61.286.955c.103.12.154.274.154.463 0 .157-.03.318-.089.482l-1.455 3.43v2.239h-.675V5.538L57.596.956h.691l1.552 4.261 1.414-3.316c.06-.157.089-.321.089-.491s-.041-.302-.122-.397l.065-.057zM1.146 9.306c.42-.022.831-.033 1.232-.033.41 0 .84.05 1.289.15.458.1.907.289 1.346.566a3.64 3.64 0 0 1 1.131 1.049c.315.422.568.982.759 1.682s.286 1.548.286 2.547-.143 1.898-.43 2.697c-.277.788-.659 1.393-1.146 1.815-.945.821-2.086 1.232-3.422 1.232-.468 0-.959-.022-1.475-.067H0V9.306h1.146zm.043 11.505c.2.022.453.033.759.033s.535-.006.687-.017c.153-.011.363-.055.63-.133.267-.089.516-.205.745-.35s.468-.355.716-.633c.258-.289.477-.627.659-1.016.41-.91.616-2.098.616-3.563 0-1.043-.11-1.942-.329-2.697-.22-.766-.473-1.332-.759-1.698a3.035 3.035 0 0 0-1.017-.866c-.401-.222-.721-.35-.959-.383s-.516-.05-.831-.05c-.315 0-.621.017-.917.05v11.321zM38.54 20.944h-.186V9.29h.487l5.957 10.772V9.29h.186v11.654h-1.045l-5.399-9.656v9.656zM53.803 9.29h.186v6.66c0 1.743-.296 3.025-.888 3.846-.592.81-1.365 1.215-2.32 1.215-.601 0-1.112-.061-1.532-.183a3.167 3.167 0 0 1-1.189-.716c-.764-.688-1.146-2.076-1.146-4.162V9.29h1.189v6.643c0 2.02.263 3.369.788 4.046.267.333.544.561.831.683.296.122.649.183 1.06.183.916 0 1.647-.388 2.191-1.165.554-.788.831-2.037.831-3.746V9.291zM58.874 20.944h-1.189V9.456h-2.477v-.167h6.158v.167h-2.492v11.488z"/></symbol><symbol id="icon-chevron-double-up" viewBox="0 0 80 80"><path d="m41.17 11.777 31.76 31.76 7.07-7.07L48.24 4.71c-2.106-2.102-5.013-3.402-8.223-3.402s-6.118 1.3-8.224 3.402L.017 36.466l7.07 7.07 31.777-31.76a1.627 1.627 0 0 1 2.306 0z"/><path d="m72.93 76.667 7.07-7.06-36.447-36.45c-.905-.905-2.155-1.464-3.535-1.464s-2.63.559-3.535 1.464L.016 69.607l7.07 7.06 32.93-32.913z"/></symbol></defs></svg>