<svg aria-hidden="true" style="position:absolute;width:0;height:0;overflow:hidden" xmlns="http://www.w3.org/2000/svg">
  <defs>
    <symbol id="rate-4" viewBox="0 0 173 32">
      <path fill="#ab816c" style="fill: var(--color1, #ab816c)"
        d="M14.249 4.68c0.383-1.179 2.051-1.179 2.435 0l1.908 5.872c0.171 0.527 0.663 0.884 1.217 0.884h6.174c1.24 0 1.756 1.587 0.752 2.315l-4.995 3.629c-0.449 0.326-0.636 0.904-0.465 1.431l1.908 5.872c0.383 1.179-0.967 2.16-1.97 1.431l-4.995-3.629c-0.449-0.326-1.056-0.326-1.505 0l-4.995 3.629c-1.003 0.729-2.353-0.252-1.97-1.431l1.908-5.872c0.171-0.527-0.016-1.105-0.465-1.431l-4.995-3.629c-1.003-0.729-0.488-2.315 0.752-2.315h6.174c0.555 0 1.046-0.357 1.217-0.884l1.908-5.872z">
      </path>
      <path fill="none" stroke="#ab816c" style="stroke: var(--color1, #ab816c)" stroke-linejoin="miter"
        stroke-linecap="butt" stroke-miterlimit="4" stroke-width="1.28"
        d="M156.724 4.878c0.192-0.59 1.027-0.59 1.217 0l1.908 5.872c0.257 0.791 0.993 1.327 1.825 1.327h6.175c0.62 0 0.878 0.793 0.376 1.158l-4.996 3.629c-0.672 0.489-0.954 1.356-0.698 2.147l1.908 5.872c0.192 0.59-0.484 1.080-0.984 0.716l-4.996-3.629c-0.672-0.489-1.583-0.489-2.257 0l-4.995 3.629c-0.502 0.364-1.176-0.126-0.986-0.716l1.908-5.872c0.257-0.791-0.024-1.658-0.698-2.147l-4.995-3.629c-0.502-0.364-0.244-1.158 0.376-1.158h6.173c0.832 0 1.569-0.536 1.827-1.327l1.907-5.872z">
      </path>
      <path fill="#ab816c" style="fill: var(--color1, #ab816c)"
        d="M120.649 4.68c0.383-1.179 2.051-1.179 2.435 0l1.908 5.872c0.171 0.527 0.663 0.884 1.217 0.884h6.173c1.24 0 1.756 1.587 0.753 2.315l-4.995 3.629c-0.449 0.326-0.636 0.904-0.465 1.431l1.908 5.872c0.384 1.179-0.966 2.16-1.969 1.431l-4.995-3.629c-0.449-0.326-1.056-0.326-1.505 0l-4.995 3.629c-1.003 0.729-2.353-0.252-1.97-1.431l1.908-5.872c0.171-0.527-0.016-1.105-0.465-1.431l-4.995-3.629c-1.003-0.729-0.488-2.315 0.752-2.315h6.174c0.555 0 1.046-0.357 1.217-0.884l1.908-5.872z">
      </path>
      <path fill="#ab816c" style="fill: var(--color1, #ab816c)"
        d="M85.183 4.68c0.383-1.179 2.052-1.179 2.435 0l1.908 5.872c0.171 0.527 0.663 0.884 1.217 0.884h6.174c1.24 0 1.756 1.587 0.752 2.315l-4.995 3.629c-0.449 0.326-0.636 0.904-0.465 1.431l1.908 5.872c0.383 1.179-0.967 2.16-1.97 1.431l-4.995-3.629c-0.449-0.326-1.056-0.326-1.505 0l-4.995 3.629c-1.003 0.729-2.353-0.252-1.97-1.431l1.908-5.872c0.171-0.527-0.016-1.105-0.465-1.431l-4.995-3.629c-1.003-0.729-0.488-2.315 0.752-2.315h6.174c0.555 0 1.046-0.357 1.217-0.884l1.908-5.872z">
      </path>
      <path fill="#ab816c" style="fill: var(--color1, #ab816c)"
        d="M49.716 4.68c0.383-1.179 2.052-1.179 2.435 0l1.908 5.872c0.171 0.527 0.663 0.884 1.217 0.884h6.174c1.24 0 1.756 1.587 0.752 2.315l-4.995 3.629c-0.449 0.326-0.636 0.904-0.465 1.431l1.908 5.872c0.383 1.179-0.967 2.16-1.97 1.431l-4.995-3.629c-0.449-0.326-1.056-0.326-1.505 0l-4.995 3.629c-1.003 0.729-2.353-0.252-1.97-1.431l1.908-5.872c0.171-0.527-0.016-1.105-0.465-1.431l-4.995-3.629c-1.003-0.729-0.488-2.315 0.752-2.315h6.174c0.554 0 1.046-0.357 1.217-0.884l1.908-5.872z">
      </path>
    </symbol>
    <symbol id="rate-5" viewBox="0 0 181 32">
      <path fill="#ab816c" style="fill: var(--color1, #ab816c)"
        d="M14.732 3.903c0.399-1.228 2.137-1.228 2.536 0l2.025 6.232c0.178 0.549 0.69 0.921 1.268 0.921h6.552c1.292 0 1.829 1.653 0.784 2.412l-5.301 3.851c-0.467 0.339-0.663 0.941-0.484 1.491l2.025 6.232c0.399 1.228-1.007 2.25-2.052 1.491l-5.301-3.851c-0.467-0.339-1.1-0.339-1.567 0l-5.301 3.851c-1.045 0.759-2.451-0.262-2.052-1.491l2.025-6.232c0.178-0.549-0.017-1.151-0.484-1.491l-5.301-3.851c-1.045-0.759-0.508-2.412 0.784-2.412h6.552c0.578 0 1.090-0.372 1.268-0.921l2.025-6.232z">
      </path>
      <path fill="#ab816c" style="fill: var(--color1, #ab816c)"
        d="M164.065 3.903c0.399-1.228 2.137-1.228 2.536 0l2.025 6.232c0.179 0.549 0.689 0.921 1.268 0.921h6.552c1.292 0 1.828 1.653 0.784 2.412l-5.301 3.851c-0.467 0.339-0.663 0.941-0.484 1.491l2.024 6.232c0.4 1.228-1.007 2.25-2.051 1.491l-5.301-3.851c-0.468-0.339-1.1-0.339-1.568 0l-5.301 3.851c-1.044 0.759-2.451-0.262-2.051-1.491l2.024-6.232c0.179-0.549-0.017-1.151-0.484-1.491l-5.301-3.851c-1.044-0.759-0.508-2.412 0.784-2.412h6.552c0.579 0 1.089-0.372 1.268-0.921l2.025-6.232z">
      </path>
      <path fill="#ab816c" style="fill: var(--color1, #ab816c)"
        d="M126.732 3.903c0.399-1.228 2.137-1.228 2.536 0l2.025 6.232c0.178 0.549 0.69 0.921 1.268 0.921h6.552c1.292 0 1.828 1.653 0.784 2.412l-5.301 3.851c-0.467 0.339-0.663 0.941-0.484 1.491l2.024 6.232c0.4 1.228-1.007 2.25-2.051 1.491l-5.302-3.851c-0.467-0.339-1.1-0.339-1.567 0l-5.301 3.851c-1.045 0.759-2.451-0.262-2.052-1.491l2.025-6.232c0.179-0.549-0.017-1.151-0.484-1.491l-5.301-3.851c-1.045-0.759-0.508-2.412 0.784-2.412h6.552c0.578 0 1.090-0.372 1.268-0.921l2.025-6.232z">
      </path>
      <path fill="#ab816c" style="fill: var(--color1, #ab816c)"
        d="M89.399 3.903c0.399-1.228 2.137-1.228 2.536 0l2.025 6.232c0.178 0.549 0.69 0.921 1.268 0.921h6.552c1.292 0 1.829 1.653 0.784 2.412l-5.301 3.851c-0.467 0.339-0.663 0.941-0.484 1.491l2.025 6.232c0.399 1.228-1.007 2.25-2.052 1.491l-5.301-3.851c-0.467-0.339-1.1-0.339-1.567 0l-5.301 3.851c-1.045 0.759-2.451-0.262-2.052-1.491l2.025-6.232c0.179-0.549-0.017-1.151-0.484-1.491l-5.301-3.851c-1.045-0.759-0.508-2.412 0.784-2.412h6.552c0.578 0 1.090-0.372 1.268-0.921l2.025-6.232z">
      </path>
      <path fill="#ab816c" style="fill: var(--color1, #ab816c)"
        d="M52.065 3.903c0.399-1.228 2.137-1.228 2.536 0l2.025 6.232c0.178 0.549 0.69 0.921 1.268 0.921h6.552c1.292 0 1.829 1.653 0.784 2.412l-5.301 3.851c-0.467 0.339-0.663 0.941-0.484 1.491l2.025 6.232c0.399 1.228-1.007 2.25-2.052 1.491l-5.301-3.851c-0.467-0.339-1.1-0.339-1.567 0l-5.301 3.851c-1.045 0.759-2.451-0.262-2.052-1.491l2.025-6.232c0.179-0.549-0.017-1.151-0.484-1.491l-5.301-3.851c-1.045-0.759-0.508-2.412 0.784-2.412h6.552c0.578 0 1.090-0.372 1.268-0.921l2.025-6.232z">
      </path>
    </symbol>
    <symbol id="icon-menu" viewBox="0 0 60 32">
      <path d="M2 0h56c1.105 0 2 0.895 2 2s-0.895 2-2 2h-56c-1.105 0-2-0.895-2-2s0.895-2 2-2z"></path>
      <path d="M2 14h56c1.105 0 2 0.895 2 2s-0.895 2-2 2h-56c-1.105 0-2-0.895-2-2s0.895-2 2-2z"></path>
      <path d="M2 28h56c1.105 0 2 0.895 2 2s-0.895 2-2 2h-56c-1.105 0-2-0.895-2-2s0.895-2 2-2z"></path>
    </symbol>
    <symbol id="icon-close" viewBox="0 0 32 32">
      <path
        d="M30.355 32c0.422 0 0.843-0.16 1.163-0.483 0.643-0.643 0.643-1.685 0-2.328l-28.707-28.707c-0.643-0.643-1.685-0.643-2.328 0s-0.643 1.685 0 2.329l28.707 28.706c0.323 0.321 0.744 0.483 1.165 0.483z">
      </path>
      <path
        d="M1.645 32c0.422 0 0.843-0.16 1.163-0.483l28.709-28.706c0.643-0.643 0.643-1.686 0-2.329s-1.685-0.643-2.329 0l-28.707 28.707c-0.643 0.643-0.643 1.685 0 2.328 0.323 0.321 0.744 0.483 1.163 0.483z">
      </path>
    </symbol>
    <symbol id="icon-twitter" viewBox="0 0 32 32">
      <path
        d="M32 5.441c-1.19.583-2.458.97-3.78 1.158 1.36-.908 2.398-2.334 2.886-4.053a12.307 12.307 0 0 1-4.16 1.775C25.742 2.888 24.026 2 22.154 2c-3.632 0-6.556 3.295-6.556 7.335 0 .581.044 1.14.152 1.672-5.454-.297-10.28-3.219-13.522-7.671a8.059 8.059 0 0 0-.898 3.707c0 2.54 1.17 4.791 2.914 6.095-1.054-.022-2.088-.364-2.964-.903v.08c0 3.564 2.274 6.524 5.256 7.206a5.905 5.905 0 0 1-1.72.241c-.42 0-.844-.027-1.242-.125.85 2.904 3.262 5.039 6.13 5.109-2.232 1.952-5.066 3.128-8.134 3.128-.538 0-1.054-.027-1.57-.101 2.906 2.095 6.35 3.291 10.064 3.291 12.072 0 18.672-11.178 18.672-20.868 0-.324-.01-.637-.024-.948C30.014 8.215 31.108 6.925 32 5.441z" />
    </symbol>
    <symbol id="icon-facebook" viewBox="0 0 32 32">
      <path
        d="M22.512.007 18.895 0c-4.064 0-6.69 3.091-6.69 7.875v3.631H8.568c-.314 0-.569.292-.569.653v5.261c0 .361.255.652.569.652h3.637v13.275c0 .36.254.652.569.652h4.745c.314 0 .569-.292.569-.652V18.072h4.252c.314 0 .569-.292.569-.652l.002-5.261c0-.173-.06-.339-.167-.461s-.252-.191-.402-.191h-4.254V8.429c0-1.479.307-2.23 1.987-2.23l2.437-.001c.314 0 .568-.292.568-.652V.661c0-.36-.254-.652-.568-.652z" />
    </symbol>
    <symbol id="icon-instagram" viewBox="0 0 32 32">
      <path
        d="M16.316 32h-.319c-2.508.006-4.826-.058-7.08-.195-2.066-.126-3.953-.84-5.455-2.065-1.45-1.182-2.44-2.781-2.942-4.75-.438-1.715-.461-3.398-.483-5.026a343.853 343.853 0 0 1-.036-3.96c.003-1.414.02-2.798.036-3.966.022-1.628.045-3.311.483-5.026.503-1.97 1.493-3.568 2.942-4.75C4.965 1.037 6.851.323 8.918.197 11.172.06 13.49-.004 16.004.002c2.509-.005 4.826.058 7.08.195 2.066.126 3.953.84 5.455 2.065 1.45 1.182 2.44 2.781 2.943 4.75.437 1.715.461 3.398.483 5.026.016 1.168.033 2.553.036 3.96v.006c-.003 1.408-.02 2.792-.036 3.96-.022 1.628-.045 3.311-.483 5.026-.503 1.97-1.493 3.568-2.943 4.75-1.502 1.225-3.389 1.939-5.455 2.065-2.159.131-4.376.195-6.768.195zm-.319-2.5c2.468.006 4.733-.056 6.934-.19 1.563-.095 2.917-.602 4.027-1.507 1.026-.837 1.732-1.991 2.1-3.431.364-1.428.385-2.96.406-4.442.016-1.16.032-2.535.036-3.929-.004-1.394-.02-2.769-.036-3.929-.02-1.482-.041-3.015-.406-4.443-.367-1.44-1.074-2.594-2.1-3.431-1.11-.905-2.465-1.412-4.027-1.507a108.807 108.807 0 0 0-6.928-.19c-2.467-.006-4.733.056-6.934.19-1.563.095-2.917.602-4.027 1.507-1.026.837-1.732 1.991-2.1 3.431-.364 1.428-.385 2.96-.406 4.443a363.726 363.726 0 0 0-.036 3.932c.003 1.389.02 2.765.036 3.926.02 1.482.041 3.015.406 4.442.367 1.44 1.074 2.594 2.1 3.431 1.11.905 2.465 1.412 4.027 1.507 2.201.134 4.467.197 6.928.191zm-.06-5.688c-4.308 0-7.813-3.505-7.813-7.812s3.505-7.813 7.813-7.813S23.75 11.692 23.75 16s-3.505 7.812-7.813 7.812zm0-13.125c-2.929 0-5.313 2.383-5.313 5.313s2.383 5.312 5.313 5.312c2.93 0 5.313-2.383 5.313-5.312s-2.383-5.313-5.313-5.313zm8.688-5a1.875 1.875 0 1 0 0 3.75 1.875 1.875 0 0 0 0-3.75z" />
    </symbol>
    <symbol id="icon-star" viewBox="0 0 34 32">
      <path fill="none" stroke="#ab816c" style="stroke:var(--color1, #ab816c)" stroke-width="1.684"
        d="m17.503 3.049 2.51 7.726a2.526 2.526 0 0 0 2.403 1.746h8.124c.816 0 1.155 1.044.495 1.523l-6.572 4.775a2.527 2.527 0 0 0-.918 2.824l2.51 7.726c.252.776-.636 1.421-1.296.942l-6.572-4.775a2.528 2.528 0 0 0-2.97 0l-6.572 4.775c-.66.48-1.548-.166-1.296-.942l2.51-7.726a2.525 2.525 0 0 0-.918-2.824l-6.572-4.775c-.66-.479-.321-1.523.495-1.523h8.124a2.528 2.528 0 0 0 2.403-1.746l2.51-7.726c.252-.776 1.35-.776 1.602 0z" />
    </symbol>
    <symbol id="icon-star_filled" viewBox="0 0 34 32">
      <path fill="#ab816c" style="fill:var(--color1, #ab816c)"
        d="M15.591 2.789c.504-1.552 2.699-1.552 3.204 0l2.51 7.726a1.685 1.685 0 0 0 1.602 1.164h8.124c1.632 0 2.31 2.088.99 3.047l-6.572 4.775a1.685 1.685 0 0 0-.612 1.883l2.51 7.726c.504 1.552-1.272 2.842-2.592 1.883l-6.572-4.775a1.684 1.684 0 0 0-1.98 0l-6.572 4.775c-1.32.959-3.096-.331-2.592-1.883l2.51-7.726a1.685 1.685 0 0 0-.612-1.883l-6.572-4.775c-1.32-.959-.642-3.047.99-3.047h8.124c.73 0 1.376-.47 1.602-1.164l2.51-7.726z" />
    </symbol>
    <symbol id="icon-chef-hat" viewBox="0 0 32 32">
      <path
        d="M23.15 9.631a.456.456 0 0 1-.457-.457 6.692 6.692 0 0 0-11.377-4.645 6.692 6.692 0 0 0-2.007 4.645.455.455 0 0 1-.457.457.455.455 0 0 1-.457-.457 7.608 7.608 0 0 1 15.212 0 .455.455 0 0 1-.457.457z" />
      <path
        d="M24.484 19.976a.457.457 0 0 1-.006-.915 6.644 6.644 0 0 0 6.607-6.56 6.64 6.64 0 0 0-6.688-6.574 6.792 6.792 0 0 0-1.992.295.456.456 0 0 1-.268-.874 7.723 7.723 0 0 1 2.26-.336 7.552 7.552 0 0 1 7.602 7.488 7.561 7.561 0 0 1-7.51 7.474h-.005zM7.515 19.976H7.51A7.565 7.565 0 0 1 0 12.502a7.552 7.552 0 0 1 7.602-7.488 7.695 7.695 0 0 1 2.26.336.47.47 0 0 1 .275.221.454.454 0 0 1-.191.622.46.46 0 0 1-.352.03 6.792 6.792 0 0 0-1.992-.295 6.64 6.64 0 0 0-6.688 6.574 6.646 6.646 0 0 0 6.607 6.56.455.455 0 0 1 .319.783.465.465 0 0 1-.324.132z" />
      <path
        d="M24.485 31.348H7.516a.455.455 0 0 1-.457-.457V19.519a.456.456 0 0 1 .914 0v10.915h16.055V19.519a.456.456 0 0 1 .914 0v11.372a.456.456 0 0 1-.457.457z" />
      <path
        d="M27.666 26.918H10.697a.455.455 0 0 1-.457-.457.455.455 0 0 1 .457-.457h16.969a.455.455 0 0 1 .457.457.456.456 0 0 1-.457.457z" />
    </symbol>
    <symbol id="icon-people" viewBox="0 0 32 32">
      <path
        d="M10.936 1.684c-3.395 0-6.161 2.765-6.161 6.161s2.765 6.161 6.161 6.161c3.395 0 6.161-2.765 6.161-6.161s-2.765-6.161-6.161-6.161zm0 11.288c-2.835 0-5.134-2.305-5.134-5.134s2.305-5.134 5.134-5.134c2.835 0 5.134 2.305 5.134 5.134s-2.305 5.134-5.134 5.134zM23.553 4.242c-2.551 0-4.623 2.072-4.623 4.624s2.072 4.624 4.623 4.624 4.623-2.072 4.623-4.624-2.072-4.624-4.623-4.624zm0 8.226c-1.984 0-3.597-1.613-3.597-3.597s1.613-3.597 3.597-3.597 3.597 1.613 3.597 3.597-1.613 3.597-3.597 3.597z" />
      <path
        d="M31.824 20.267c-.466-2.809-2.211-5.178-5.184-6.419 0 0-1.317.995-3.086.964-1.934-.038-3.087-.964-3.087-.964s-1.436.535-2.595 1.65c-1.071-.951-2.879-1.726-2.879-1.726s-1.657 1.26-4.063 1.241c-2.526-.019-4.05-1.241-4.05-1.241S1.419 15.649.266 22.017c0 0-1.235 3.376 1.625 8.422h18.097s1.285-2.236 1.512-3.597h9.001c2.211-3.351 1.323-6.576 1.323-6.576zm-12.473 9.146H2.526c-2.198-4.176-1.247-7.225-1.247-7.225a9.758 9.758 0 0 1 5.524-7.257c2.52 1.48 5.751 1.48 8.271 0a9.758 9.758 0 0 1 5.524 7.257c-.006 0 .907 3.754-1.247 7.225zm10.551-3.597h-8.195c.315-1.814-.101-3.798-.101-3.798a10.768 10.768 0 0 0-2.98-5.827 7.34 7.34 0 0 1 1.757-1.184 6.44 6.44 0 0 0 6.331 0 7.34 7.34 0 0 1 4.094 5.43s.75 2.545-.907 5.379z" />
    </symbol>
    <symbol id="icon-clock" viewBox="0 0 32 32">
      <path
        d="M16 0C7.178 0 0 7.178 0 16s7.178 16 16 16 16-7.178 16-16S24.822 0 16 0zm0 30.933C7.766 30.933 1.067 24.234 1.067 16S7.766 1.067 16 1.067 30.933 7.766 30.933 16 24.234 30.933 16 30.933z" />
      <path
        d="M16.534 13.878V8.469a.533.533 0 1 0-1.066 0v5.409a2.13 2.13 0 0 0-1.524 1.524h-3.809a.533.533 0 1 0 0 1.066h3.809a2.132 2.132 0 0 0 2.058 1.6 2.135 2.135 0 0 0 2.133-2.133c0-.991-.683-1.819-1.6-2.058zM16 17.002a1.068 1.068 0 0 1 0-2.134 1.068 1.068 0 0 1 0 2.134zM16 5.269a.533.533 0 0 0 .533-.533v-.533a.533.533 0 1 0-1.066 0v.533c0 .295.239.533.533.533zM16 26.602a.533.533 0 0 0-.533.533v.533a.533.533 0 1 0 1.066 0v-.533a.533.533 0 0 0-.533-.533zM27.734 15.402h-.533a.533.533 0 1 0 0 1.066h.533a.533.533 0 1 0 0-1.066zM4.8 15.402h-.533a.533.533 0 1 0 0 1.066H4.8a.533.533 0 1 0 0-1.066zM23.919 7.261l-.377.377a.532.532 0 0 0 .377.91.532.532 0 0 0 .377-.156l.377-.377a.534.534 0 0 0-.754-.754zM7.704 23.478l-.377.377a.532.532 0 0 0 .377.91.532.532 0 0 0 .377-.156l.377-.377a.534.534 0 0 0-.754-.754zM24.296 23.478a.533.533 0 1 0-.754.754l.377.377a.532.532 0 1 0 .754-.754l-.377-.377zM8.081 7.261a.533.533 0 1 0-.754.754l.377.377a.532.532 0 1 0 .754-.754l-.377-.377z" />
    </symbol>
    <symbol id="icon-chat" viewBox="0 0 32 32">
      <path
        d="M24.62 16.411c0-5.844-6.16-9.674-12.31-9.674C6.135 6.737 0 10.585 0 16.411c0 2.204.965 4.359 2.718 6.069.067.066.093.165.067.259-.551 2.017-1.855 3.839-2.39 4.529a.69.69 0 0 0-.071.741.69.69 0 0 0 .621.382h.018c2.618-.065 5.653-.804 7.529-2.649a.27.27 0 0 1 .252-.068c1.153.273 2.353.412 3.566.412 6.173 0 12.31-3.847 12.31-9.674zm-15.66 8.35a1.199 1.199 0 0 0-1.125.312c-1.876 1.845-4.939 2.264-6.39 2.357.662-.914 1.74-2.594 2.244-4.444a1.202 1.202 0 0 0-.317-1.177C1.779 20.255.937 18.389.937 16.411c0-4.817 5.102-8.737 11.373-8.737s11.373 3.919 11.373 8.737-5.102 8.737-11.373 8.737c-1.141 0-2.268-.13-3.35-.387z" />
      <path
        d="M27.635 24.199C30.368 22.818 32 20.464 32 17.902c0-3.621-3.273-6.714-7.782-7.356a.47.47 0 0 0-.132.928c4.043.575 6.977 3.279 6.977 6.428 0 2.201-1.439 4.242-3.85 5.461a1.16 1.16 0 0 0-.611 1.274c.229 1.074.715 2.069 1.104 2.743-2.768-.461-3.817-1.789-4.149-2.364a1.157 1.157 0 0 0-1.001-.575H22.518c-.52 0-1.04-.036-1.547-.107a.469.469 0 0 0-.13.928c.55.077 1.114.116 1.677.116h.039c.078 0 .151.041.188.106 1.27 2.2 4.188 2.762 5.384 2.901.264.031.516-.09.657-.316s.139-.504-.005-.727c-.36-.561-1.003-1.684-1.262-2.901a.22.22 0 0 1 .117-.242zM5.016 14.734c-.896 0-1.625.729-1.625 1.625s.729 1.625 1.625 1.625 1.625-.729 1.625-1.625-.729-1.625-1.625-1.625zm0 2.312a.688.688 0 1 1 .001-1.375.688.688 0 0 1-.001 1.375zM9.651 14.734c-.896 0-1.625.729-1.625 1.625s.729 1.625 1.625 1.625 1.625-.729 1.625-1.625-.729-1.625-1.625-1.625zm0 2.312a.688.688 0 1 1 .001-1.375.688.688 0 0 1-.001 1.375zM14.285 14.734c-.896 0-1.625.729-1.625 1.625s.729 1.625 1.625 1.625 1.625-.729 1.625-1.625-.729-1.625-1.625-1.625zm0 2.312a.688.688 0 1 1 .001-1.375.688.688 0 0 1-.001 1.375zM18.92 14.734c-.896 0-1.625.729-1.625 1.625s.729 1.625 1.625 1.625 1.625-.729 1.625-1.625-.729-1.625-1.625-1.625zm0 2.312a.688.688 0 1 1 .001-1.375.688.688 0 0 1-.001 1.375z" />
    </symbol>
    <symbol id="icon-tel" viewBox="0 0 32 32">
      <path
        d="M29.43 21.004c-1.959 0-3.882-.306-5.705-.909-.893-.305-1.991-.025-2.536.535l-3.598 2.716c-4.172-2.227-6.743-4.797-8.939-8.938l2.636-3.504a2.585 2.585 0 0 0 .636-2.621 18.192 18.192 0 0 1-.912-5.715A2.57 2.57 0 0 0 8.445 0H2.569A2.57 2.57 0 0 0 .001 2.568C.001 18.797 13.203 32 29.431 32a2.57 2.57 0 0 0 2.568-2.568v-5.86a2.57 2.57 0 0 0-2.568-2.568z" />
    </symbol>
    <symbol id="icon-location" viewBox="0 0 27 32">
      <path
        d="M13.538 0c7.465 0 13.538 5.468 13.538 12.188 0 2.659-.933 5.186-2.701 7.306L14.372 31.622c-.025.029-.063.041-.091.067-.5.482-1.221.361-1.577-.067-2.881-3.46-8.161-9.922-10.191-12.359l-.001-.003-.012-.015C.864 17.176 0 14.736 0 12.188 0 5.468 6.074 0 13.538 0zm0 18.762c4.019 0 7.304-2.957 7.304-6.575s-3.285-6.575-7.304-6.575-7.304 2.957-7.304 6.575 3.285 6.575 7.304 6.575z" />
    </symbol>
    <symbol id="icon-logo" viewBox="0 0 72 32">
      <path
        d="M42.45 15.997c0 0.261-0.008 0.521 0 0.783 0.089 2.653-0.739 5.043-2.069 7.296-0.446 0.756-0.872 1.524-1.256 2.314-0.317 0.649-0.757 1.104-1.442 1.37-0.382 0.148-0.737 0.405-1.058 0.669-1.476 1.218-3.15 2.091-4.941 2.705-1.189 0.408-2.414 0.767-3.706 0.751-0.385-0.004-0.771 0.114-1.157 0.115s-0.772-0.124-1.154-0.108c-1.666 0.071-3.21-0.441-4.742-0.979-1.673-0.586-3.15-1.513-4.539-2.617-1.961-1.558-3.358-3.52-4.385-5.765-0.554-1.211-1.004-2.46-1.132-3.804-0.021-0.223-0.095-0.444-0.161-0.66-0.466-1.507-0.198-2.985 0.090-4.486 0.22-1.148 0.447-2.283 0.877-3.373 1.135-2.884 2.938-5.245 5.435-7.1 2.081-1.545 4.411-2.494 6.944-2.902 2.907-0.468 5.744-0.131 8.497 0.963 1.374 0.548 2.67 1.241 3.802 2.159 1.056 0.856 2.008 1.858 2.908 2.883 0.815 0.928 1.394 2.034 1.911 3.162 0.807 1.762 1.333 3.586 1.28 5.546-0.012 0.362-0.003 0.721-0.003 1.080zM41.335 12.427c-0.081-0.616-0.131-1.329-0.281-2.022-0.429-1.992-1.583-3.548-3.121-4.818-0.873-0.722-1.825-1.349-2.763-1.988-0.318-0.216-0.687-0.415-1.058-0.481-0.954-0.176-1.919-0.34-2.886-0.389-1.678-0.085-3.186-0.518-4.453-1.685-0.933-0.858-1.948-0.941-2.917-0.186-1.099 0.855-2.349 1.357-3.624 1.854-0.934 0.364-1.833 0.823-2.731 1.276-0.75 0.379-1.187 0.971-1.177 1.867 0.006 0.503-0.225 0.923-0.69 1.201-0.388 0.234-0.762 0.492-1.117 0.773-0.993 0.781-1.767 1.661-1.934 3.027-0.132 1.080-0.459 2.148-1.2 3.038-0.248 0.306-0.401 0.677-0.442 1.069-0.068 0.807-0.040 1.625-0.020 2.437 0.006 0.217 0.1 0.451 0.211 0.642 0.256 0.452 0.534 0.891 0.835 1.315 0.727 1.010 1.359 2.046 1.505 3.329 0.141 1.244 0.742 2.257 1.759 3.030 1.473 1.121 2.892 2.311 4.387 3.402 0.803 0.588 1.663 1.102 2.723 1.221s2.098 0.408 3.048 0.941c0.199 0.107 0.418 0.174 0.643 0.197 1.34 0.144 2.581-0.187 3.758-0.814 0.369-0.197 0.749-0.375 1.131-0.546 0.92-0.412 1.94-0.682 2.741-1.255 0.891-0.639 1.845-0.923 2.868-1.101 0.442-0.077 0.803-0.259 1.091-0.588 0.344-0.39 0.661-0.802 1.019-1.179 0.37-0.389 0.637-0.802 0.702-1.356 0.099-0.849 0.463-1.599 0.924-2.319 0.781-1.217 1.225-2.562 1.456-3.992 0.061-0.375 0.095-0.692-0.091-1.023-0.538-0.953-0.318-2.035-0.488-3.049-0.086-0.548 0.112-1.148 0.195-1.832l-0.002 0.001zM34.865 2.909c-0.227-0.251-0.299-0.364-0.402-0.434-0.186-0.128-0.388-0.233-0.585-0.344-1.687-0.95-3.535-1.412-5.423-1.743-0.379-0.067-0.778-0.037-1.165-0.022-0.101 0.004-0.221 0.102-0.285 0.19-0.029 0.040 0.037 0.18 0.092 0.248 0.42 0.5 0.968 0.878 1.585 1.092 1.066 0.383 2.186 0.594 3.319 0.623 0.48 0.013 0.958 0.104 1.436 0.169 0.407 0.058 0.814 0.127 1.428 0.223zM20.532 30.284c-1.132-0.925-2.125-1.752-3.135-2.556-0.836-0.666-1.691-1.309-2.545-1.951-0.096-0.072-0.247-0.070-0.458-0.124 1.030 1.728 4.469 4.353 6.138 4.632zM12.903 8.699c0.683-0.521 1.315-1.070 2.008-1.524 0.972-0.633 1.344-1.421 1.115-2.773-0.69 0.564-1.182 1.244-1.714 1.861-0.562 0.651-0.979 1.426-1.448 2.155-0.036 0.059 0.022 0.175 0.039 0.281zM35.933 28.421c-0.637-0.044-1.279 0.069-1.678 0.412-0.758 0.652-1.661 0.98-2.578 1.306-0.482 0.171-0.936 0.422-1.39 0.661-0.063 0.033-0.074 0.209-0.061 0.313 0.004 0.035 0.174 0.092 0.244 0.069 0.824-0.281 1.676-0.507 2.456-0.883 0.957-0.459 1.856-1.040 2.772-1.579 0.096-0.054 0.147-0.181 0.236-0.299zM11.596 19.382c-0.183 0.54-0.147 0.838-0.032 1.156 0.319 0.883 0.513 1.814 1.089 2.585 0.213 0.286 0.257 0.925 0.651 0.787 0.347-0.12-0.059-0.627-0.083-0.968-0.091-1.304-0.777-2.355-1.625-3.561zM17.775 3.142l0.086 0.129c0.476-0.176 0.956-0.343 1.428-0.532 1.024-0.41 2.045-0.829 3.062-1.254 0.205-0.087 0.393-0.225 0.568-0.366 0.049-0.040 0.040-0.175 0.025-0.258-0.008-0.037-0.105-0.078-0.161-0.080-0.095 0.002-0.19 0.018-0.281 0.047-1.383 0.393-2.688 0.974-3.936 1.68-0.292 0.165-0.529 0.422-0.791 0.636zM42.071 17.147c0.084-0.097 0.149-0.138 0.154-0.183 0.135-1.421-0.016-2.829-0.21-4.233-0.010-0.071-0.108-0.172-0.174-0.18-0.073-0.010-0.188 0.051-0.233 0.117-0.073 0.104-0.119 0.225-0.133 0.352-0.073 1.158 0.003 2.321 0.227 3.46 0.044 0.23 0.235 0.432 0.369 0.668zM11.262 13.227c0.54-0.206 0.621-0.578 0.678-0.915 0.141-0.82 0.494-1.61 0.377-2.477-0.564 1.035-1.065 2.083-1.055 3.392h-0zM24.328 31.234c-1.21-0.535-1.538-0.591-2.616-0.441 0.457 0.173 0.868 0.448 1.281 0.452 0.431 0.006 0.898 0.534 1.335-0.011h-0z">
      </path>
      <path
        d="M26.823 20.593c-0.827-0.015-1.396-0.361-1.817-1.030-0.392-0.624-1.044-0.947-1.642-1.332-0.753-0.484-1.366-1.030-1.54-2.012-0.12-0.665 0.020-1.243 0.29-1.769 0.227-0.439 0.632-0.847 1.057-1.108 0.461-0.283 0.844-0.55 1.056-1.073 0.241-0.602 0.848-0.638 1.386-0.746 0.506-0.102 1.021-0.167 1.521-0.295 0.683-0.174 1.303-0.12 1.802 0.411 0.386 0.412 0.836 0.708 1.338 0.958 0.522 0.26 0.695 0.564 0.531 1.107-0.111 0.369-0.004 0.62 0.134 0.914 0.15 0.321 0.305 0.647 0.408 0.986 0.344 1.128-0.052 2.077-1.111 2.58-0.656 0.311-1.159 0.726-1.322 1.456-0.066 0.294-0.249 0.461-0.509 0.537-0.524 0.153-1.055 0.28-1.583 0.417zM30.297 15.864c0.017-1.987-1.49-3.576-3.45-3.579-1.759 0-3.528 1.189-3.596 3.469-0.055 1.824 1.465 3.524 3.447 3.53 2.414 0.012 3.552-1.663 3.599-3.42zM23.231 17.764c0-0.255 0.024-0.385-0.004-0.503-0.26-1.079-0.429-2.148 0.161-3.188 0.043-0.075-0.055-0.229-0.088-0.346-0.116 0.037-0.255 0.045-0.343 0.117-0.974 0.799-1.409 2.718 0.274 3.92zM26.849 11.787c0.408 0.149 0.64 0.255 0.884 0.321 0.898 0.237 1.664 0.664 2.197 1.451 0.105 0.155 0.241 0.385 0.442 0.209 0.107-0.094 0.142-0.382 0.080-0.526-0.083-0.191-0.272-0.43-0.454-0.468-0.493-0.103-0.763-0.46-1.085-0.771-0.541-0.519-1.144-0.682-2.065-0.215zM26.794 19.609l-0.012-0.075c-0.259 0-0.52-0.022-0.774 0.009-0.131 0.016-0.25 0.127-0.374 0.195 0.113 0.1 0.211 0.257 0.341 0.29 0.696 0.175 1.397 0.213 2.083-0.055 0.117-0.046 0.248-0.106 0.321-0.201 0.065-0.080 0.086-0.223 0.073-0.331-0.005-0.040-0.168-0.101-0.248-0.088-0.471 0.074-0.94 0.167-1.409 0.254l-0.002 0.001zM30.352 17.571c0.482-0.089 0.697-0.361 0.725-0.779 0.021-0.352 0.016-0.705-0.015-1.056-0.008-0.093-0.137-0.175-0.21-0.263-0.107 0.101-0.325 0.238-0.305 0.299 0.196 0.609-0.213 1.155-0.194 1.797v0.001z">
      </path>
      <path
        d="M34.761 20.323c-0.028 0.014-0.139 0.107-0.26 0.12-0.11 0.013-0.271-0.024-0.339-0.101-0.343-0.386-0.675-0.783-0.982-1.199-0.080-0.109-0.113-0.401-0.067-0.426 0.151-0.083 0.445-0.17 0.511-0.098 0.388 0.427 0.729 0.897 1.079 1.357 0.034 0.046 0.024 0.125 0.059 0.346z">
      </path>
      <path
        d="M18.351 23.668c0.179 0.014 0.533 0.025 0.878 0.084 0.086 0.015 0.201 0.183 0.201 0.283s-0.099 0.274-0.185 0.295c-0.671 0.166-1.338 0.207-1.932-0.241-0.034-0.031-0.059-0.070-0.076-0.112s-0.023-0.089-0.019-0.134c0.013-0.067 0.117-0.16 0.187-0.165 0.257-0.022 0.516-0.010 0.946-0.010z">
      </path>
      <path
        d="M39.372 9.562l0.254 0.139c-0.072 0.129-0.116 0.336-0.221 0.373-0.483 0.177-0.979 0.319-1.483 0.423-0.145 0.028-0.356-0.114-0.489-0.231-0.154-0.136-0.062-0.431 0.132-0.461 0.571-0.088 1.147-0.155 1.807-0.242z">
      </path>
      <path
        d="M22.297 26.541c0.268 0.125 0.493 0.16 0.602 0.294 0.3 0.372 0.575 0.764 0.822 1.174 0.12 0.195 0.010 0.406-0.192 0.462-0.111 0.031-0.313-0.060-0.395-0.16-0.327-0.394-0.631-0.807-0.909-1.238-0.064-0.102 0.035-0.308 0.071-0.532z">
      </path>
      <path
        d="M32.825 11.018c0.017-0.114 0-0.244 0.053-0.294 0.072-0.066 0.227-0.12 0.302-0.085 0.102 0.049 0.167 0.182 0.237 0.286 0.194 0.291 0.387 0.584 0.572 0.883 0.083 0.134 0.194 0.276 0.201 0.42 0.008 0.133-0.073 0.306-0.174 0.398-0.056 0.051-0.286 0.018-0.343-0.053-0.371-0.471-0.816-0.913-0.849-1.554z">
      </path>
      <path
        d="M33.98 6.010c-0.080 0.481-0.112 0.836-0.206 1.175-0.059 0.183-0.17 0.345-0.321 0.465-0.106 0.086-0.292 0.073-0.442 0.105-0.012-0.14-0.056-0.286-0.031-0.419 0.078-0.41 0.183-0.815 0.277-1.222 0.007-0.032 0.005-0.065 0.014-0.096 0.074-0.245 0.234-0.432 0.49-0.331 0.129 0.051 0.189 0.276 0.219 0.323z">
      </path>
      <path
        d="M27.054 9.141c0.226 0.028 0.518 0.043 0.796 0.111 0.095 0.023 0.236 0.194 0.219 0.268-0.029 0.132-0.139 0.306-0.255 0.345-0.184 0.057-0.381 0.058-0.566 0.003-0.321-0.102-0.621-0.136-0.941-0.002-0.21 0.088-0.408-0.004-0.464-0.214-0.075-0.281 0.136-0.417 0.374-0.456 0.253-0.042 0.515-0.035 0.837-0.054z">
      </path>
      <path
        d="M32.064 22.97c-0.091 0.398-0.161 0.748-0.259 1.089-0.019 0.067-0.161 0.157-0.22 0.142-0.107-0.026-0.257-0.11-0.279-0.198-0.048-0.189-0.054-0.386-0.016-0.577 0.076-0.35 0.15-0.682 0.008-1.039-0.067-0.171-0.048-0.444 0.212-0.444 0.14 0 0.342 0.173 0.405 0.316 0.102 0.229 0.109 0.499 0.149 0.71z">
      </path>
      <path
        d="M28.111 22.868c-0.052 0.093-0.078 0.204-0.146 0.251-0.423 0.291-0.847 0.584-1.292 0.838-0.114 0.065-0.313 0.025-0.458-0.018-0.212-0.063-0.257-0.342-0.080-0.455 0.487-0.312 0.977-0.621 1.478-0.908 0.080-0.046 0.241 0.004 0.345 0.055 0.070 0.035 0.1 0.149 0.154 0.237z">
      </path>
      <path
        d="M22.723 4.155c0.069 0.040 0.198 0.075 0.215 0.139 0.168 0.618 0.33 1.238 0.463 1.864 0.037 0.174-0.193 0.27-0.347 0.166-0.486-0.327-0.788-1.536-0.505-2.042 0.029-0.050 0.101-0.075 0.174-0.128z">
      </path>
      <path
        d="M28.724 5.911c-0.146-0.097-0.304-0.147-0.325-0.231-0.023-0.091 0.053-0.247 0.135-0.321 0.356-0.318 0.729-0.618 1.117-0.897 0.131-0.092 0.402-0.157 0.502-0.085 0.237 0.166 0.112 0.401-0.053 0.573-0.222 0.231-0.442 0.475-0.697 0.662-0.196 0.141-0.447 0.201-0.678 0.299z">
      </path>
      <path
        d="M19.489 9.177l-0.355 0.335c-0.101-0.11-0.251-0.201-0.294-0.331-0.17-0.512-0.313-1.033-0.448-1.555-0.018-0.072 0.040-0.219 0.1-0.243 0.098-0.040 0.26-0.056 0.335 0 0.147 0.109 0.316 0.254 0.364 0.418 0.127 0.425 0.193 0.87 0.298 1.377z">
      </path>
      <path
        d="M15.602 17.757c-0.326 0.596-0.573 1.207-1.18 1.533-0.102 0.055-0.328-0.015-0.437-0.102-0.186-0.147 0-0.27 0.090-0.395 0.285-0.392 0.548-0.8 0.85-1.177 0.078-0.097 0.276-0.144 0.411-0.131 0.092 0.008 0.166 0.164 0.266 0.272z">
      </path>
      <path
        d="M19.282 17.807c0.17 0.098 0.293 0.128 0.316 0.192 0.038 0.106 0.057 0.272 0 0.346-0.093 0.117-0.253 0.184-0.39 0.263-0.356 0.204-0.708 0.42-1.078 0.594-0.113 0.053-0.317 0.037-0.418-0.035-0.207-0.147-0.134-0.383 0.032-0.487 0.509-0.318 1.043-0.596 1.538-0.873z">
      </path>
      <path
        d="M37.698 15.106c-0.131 0.295-0.315 0.74-0.533 1.167-0.034 0.066-0.245 0.102-0.335 0.063-0.083-0.037-0.174-0.205-0.157-0.295 0.088-0.475 0.184-0.952 0.332-1.411 0.045-0.14 0.248-0.267 0.405-0.314 0.058-0.017 0.209 0.201 0.281 0.334 0.041 0.075 0.007 0.191 0.007 0.457z">
      </path>
      <path
        d="M15.5 11.562c0.576 0.517 0.508 1.218 0.572 1.866 0.012 0.12-0.138 0.292-0.258 0.379-0.063 0.046-0.317-0.028-0.323-0.070-0.091-0.654-0.161-1.312-0.216-1.971-0.004-0.056 0.131-0.125 0.226-0.205z">
      </path>
      <path
        d="M28.97 27.56c0.097 0.026 0.192 0.057 0.285 0.093 0.346 0.16 0.695 0.317 1.032 0.493 0.161 0.083 0.321 0.188 0.437 0.321 0.133 0.154-0.019 0.451-0.205 0.41-0.628-0.136-1.242-0.325-1.712-0.794-0.070-0.069-0.068-0.243-0.045-0.358 0.013-0.065 0.135-0.11 0.208-0.165z">
      </path>
      <path
        d="M21.324 11.751c0.033 0.104 0.147 0.265 0.107 0.366-0.211 0.536-0.455 1.059-0.704 1.578-0.031 0.064-0.161 0.12-0.238 0.11-0.067-0.008-0.161-0.103-0.178-0.175-0.132-0.579 0.284-1.615 0.747-1.876 0.048-0.027 0.124-0.004 0.266-0.004z">
      </path>
      <path
        d="M39.288 20.539c-0.072-0.046-0.223-0.102-0.301-0.209-0.031-0.043 0.070-0.239 0.157-0.301 0.387-0.281 0.781-0.549 1.192-0.789 0.111-0.065 0.341-0.069 0.423 0.003 0.075 0.067 0.086 0.321 0.018 0.414-0.345 0.48-0.779 0.846-1.49 0.883z">
      </path>
      <path
        d="M36.901 24.67c-0.298-0.031-0.428-0.034-0.552-0.062-0.053-0.012-0.131-0.074-0.132-0.114-0.006-0.091 0.018-0.182 0.068-0.259 0.064-0.073 0.148-0.125 0.241-0.15 0.46-0.138 0.919-0.276 1.386-0.388 0.101-0.024 0.314 0.043 0.328 0.1 0.031 0.137-0.006 0.303-0.060 0.441-0.029 0.073-0.142 0.134-0.23 0.16-0.399 0.11-0.8 0.207-1.049 0.272z">
      </path>
      <path
        d="M23.064 21.355c-0.033 0.14-0.086 0.45-0.19 0.742-0.026 0.073-0.227 0.142-0.319 0.116s-0.201-0.178-0.198-0.274c0.010-0.541 0.037-1.083 0.092-1.622 0.012-0.118 0.161-0.221 0.247-0.331 0.103 0.109 0.27 0.205 0.296 0.329 0.058 0.279 0.046 0.573 0.073 1.039z">
      </path>
      <path
        d="M44.599 4.422c0-1.146 0.278-2.016 0.833-2.608 0.561-0.598 1.28-0.898 2.157-0.898s1.574 0.258 2.091 0.775c0.524 0.516 0.785 1.342 0.785 2.475s-0.277 1.99-0.832 2.57c-0.555 0.579-1.296 0.869-2.223 0.869-0.801 0-1.457-0.23-1.968-0.69-0.265-0.239-0.473-0.57-0.625-0.992-0.145-0.428-0.218-0.929-0.218-1.502zM47.56 1.012c-0.637 0-1.16 0.283-1.57 0.85-0.404 0.567-0.606 1.398-0.606 2.494s0.192 1.896 0.577 2.4c0.385 0.504 0.896 0.756 1.533 0.756 0.643 0 1.167-0.283 1.571-0.85 0.41-0.573 0.615-1.401 0.615-2.485 0-1.090-0.195-1.89-0.587-2.4-0.385-0.51-0.896-0.765-1.533-0.765z">
      </path>
      <path d="M52.101 7.569h-0.785v-6.614h0.785v3.042h3.075v-3.042h0.785v6.614h-0.785v-3.477h-3.075v3.477z"></path>
      <path
        d="M59.997 7.569h-0.123l0.823-6.614h0.312l1.987 6.113 1.977-6.113h0.312l0.823 6.614h-0.785l-0.653-5.291-1.713 5.291h-0.596l-1.731-5.225-0.634 5.225z">
      </path>
      <path
        d="M71.35 0.955c0.12 0.12 0.18 0.274 0.18 0.463 0 0.157-0.035 0.318-0.104 0.482l-1.694 3.43v2.239h-0.785v-2.031l-1.892-4.582h0.804l1.807 4.261 1.646-3.316c0.069-0.157 0.104-0.321 0.104-0.491s-0.047-0.302-0.142-0.397l0.076-0.057z">
      </path>
      <path
        d="M1.334 9.306c0.489-0.022 0.967-0.033 1.434-0.033 0.478 0 0.978 0.050 1.5 0.15 0.534 0.1 1.056 0.289 1.567 0.566 0.522 0.266 0.961 0.616 1.317 1.049 0.367 0.422 0.661 0.982 0.884 1.682s0.333 1.548 0.333 2.547c0 0.999-0.167 1.898-0.5 2.697-0.322 0.788-0.767 1.393-1.334 1.815-1.1 0.821-2.429 1.232-3.985 1.232-0.545 0-1.117-0.022-1.717-0.067h-0.834v-11.638h1.334zM1.384 20.811c0.233 0.022 0.528 0.033 0.884 0.033s0.622-0.006 0.8-0.017c0.178-0.011 0.422-0.055 0.734-0.133 0.311-0.089 0.6-0.205 0.867-0.35s0.545-0.355 0.834-0.633c0.3-0.289 0.556-0.627 0.767-1.016 0.478-0.91 0.717-2.098 0.717-3.563 0-1.043-0.128-1.942-0.383-2.697-0.256-0.766-0.55-1.332-0.884-1.698-0.322-0.366-0.717-0.655-1.184-0.866-0.467-0.222-0.839-0.35-1.117-0.383s-0.6-0.050-0.967-0.050-0.722 0.017-1.067 0.050v11.321z">
      </path>
      <path d="M44.869 20.944h-0.216v-11.654h0.567l6.936 10.772v-10.772h0.216v11.654h-1.217l-6.286-9.656v9.656z"></path>
      <path
        d="M62.638 9.29h0.217v6.66c0 1.743-0.344 3.025-1.034 3.846-0.689 0.81-1.589 1.215-2.701 1.215-0.7 0-1.295-0.061-1.784-0.183-0.489-0.133-0.95-0.372-1.384-0.716-0.889-0.688-1.333-2.076-1.333-4.162v-6.66h1.384v6.643c0 2.020 0.306 3.369 0.917 4.046 0.311 0.333 0.634 0.561 0.967 0.683 0.345 0.122 0.756 0.183 1.234 0.183 1.067 0 1.917-0.388 2.551-1.165 0.645-0.788 0.967-2.037 0.967-3.746v-6.643z">
      </path>
      <path d="M68.542 20.944h-1.384v-11.488h-2.884v-0.166h7.169v0.166h-2.901v11.488z"></path>
    </symbol>
    <symbol id="icon-logo_lg" viewBox="0 0 43 32">
      <path d="M25.646 15.991c0 0.259-0.005 0.517 0 0.777 0.054 2.632-0.447 5.003-1.25 7.239-0.269 0.75-0.527 1.512-0.759 2.296-0.191 0.644-0.457 1.095-0.871 1.359-0.231 0.147-0.445 0.402-0.639 0.664-0.892 1.209-1.903 2.074-2.985 2.684-0.719 0.405-1.458 0.761-2.239 0.745-0.233-0.004-0.466 0.113-0.699 0.114s-0.466-0.123-0.697-0.107c-1.007 0.071-1.939-0.438-2.865-0.971-1.011-0.582-1.903-1.501-2.742-2.597-1.184-1.545-2.028-3.492-2.649-5.72-0.334-1.201-0.607-2.441-0.684-3.774-0.013-0.221-0.058-0.44-0.097-0.655-0.282-1.495-0.12-2.962 0.055-4.451 0.133-1.139 0.27-2.265 0.53-3.347 0.686-2.861 1.775-5.204 3.283-7.045 1.258-1.533 2.665-2.475 4.195-2.88 1.756-0.464 3.47-0.13 5.133 0.955 0.83 0.543 1.613 1.231 2.297 2.142 0.638 0.85 1.213 1.844 1.757 2.86 0.493 0.921 0.842 2.018 1.155 3.137 0.488 1.748 0.806 3.558 0.773 5.502-0.007 0.359-0.002 0.716-0.002 1.071zM24.972 12.449c-0.049-0.611-0.079-1.319-0.17-2.006-0.259-1.977-0.956-3.52-1.886-4.78-0.528-0.716-1.103-1.339-1.67-1.972-0.192-0.215-0.415-0.412-0.639-0.478-0.576-0.174-1.159-0.337-1.743-0.386-1.014-0.085-1.925-0.514-2.69-1.672-0.563-0.851-1.177-0.934-1.763-0.184-0.664 0.849-1.419 1.347-2.189 1.84-0.564 0.361-1.108 0.817-1.65 1.266-0.453 0.377-0.717 0.964-0.711 1.853 0.004 0.499-0.136 0.915-0.417 1.192-0.235 0.232-0.46 0.488-0.675 0.767-0.6 0.775-1.068 1.649-1.169 3.004-0.080 1.072-0.277 2.131-0.725 3.014-0.15 0.304-0.242 0.672-0.267 1.060-0.041 0.801-0.024 1.612-0.012 2.418 0.003 0.216 0.060 0.447 0.128 0.637 0.155 0.449 0.323 0.884 0.504 1.305 0.439 1.003 0.821 2.030 0.91 3.303 0.085 1.234 0.448 2.239 1.063 3.006 0.89 1.112 1.747 2.293 2.65 3.375 0.485 0.584 1.005 1.094 1.645 1.212s1.268 0.404 1.842 0.934c0.12 0.106 0.252 0.173 0.388 0.196 0.81 0.143 1.559-0.186 2.27-0.808 0.223-0.195 0.453-0.372 0.683-0.542 0.556-0.408 1.172-0.677 1.656-1.245 0.538-0.634 1.114-0.915 1.732-1.093 0.267-0.077 0.485-0.257 0.659-0.583 0.207-0.387 0.399-0.796 0.616-1.17 0.224-0.386 0.385-0.796 0.424-1.346 0.060-0.843 0.28-1.586 0.558-2.301 0.472-1.208 0.74-2.542 0.879-3.961 0.037-0.372 0.058-0.687-0.055-1.015-0.325-0.945-0.192-2.019-0.295-3.025-0.052-0.544 0.068-1.139 0.118-1.817l-0.001 0.001zM21.064 3.005c-0.137-0.249-0.181-0.361-0.243-0.431-0.112-0.127-0.234-0.231-0.354-0.341-1.019-0.942-2.136-1.401-3.276-1.73-0.229-0.066-0.47-0.037-0.704-0.022-0.061 0.004-0.133 0.101-0.172 0.188-0.018 0.040 0.022 0.179 0.056 0.246 0.254 0.496 0.585 0.871 0.958 1.083 0.644 0.38 1.321 0.589 2.005 0.618 0.29 0.013 0.579 0.103 0.867 0.168 0.246 0.057 0.492 0.126 0.862 0.221zM12.404 30.166c-0.684-0.918-1.284-1.738-1.894-2.536-0.505-0.661-1.021-1.299-1.538-1.936-0.058-0.072-0.149-0.070-0.276-0.123 0.622 1.715 2.7 4.32 3.708 4.596zM7.795 8.75c0.413-0.517 0.794-1.062 1.213-1.512 0.588-0.628 0.812-1.41 0.673-2.751-0.417 0.56-0.714 1.234-1.036 1.846-0.34 0.646-0.592 1.415-0.875 2.138-0.022 0.059 0.014 0.174 0.024 0.279zM21.709 28.317c-0.385-0.043-0.772 0.068-1.014 0.409-0.458 0.647-1.003 0.972-1.558 1.296-0.291 0.17-0.566 0.419-0.84 0.656-0.038 0.033-0.045 0.207-0.037 0.31 0.003 0.034 0.105 0.091 0.148 0.068 0.498-0.278 1.012-0.503 1.484-0.875 0.578-0.455 1.121-1.032 1.674-1.567 0.058-0.053 0.089-0.179 0.143-0.297zM7.006 19.349c-0.111 0.535-0.089 0.832-0.019 1.147 0.193 0.876 0.31 1.8 0.658 2.565 0.129 0.284 0.155 0.918 0.393 0.781 0.209-0.119-0.036-0.622-0.050-0.96-0.055-1.294-0.469-2.337-0.982-3.533zM10.739 3.236l0.052 0.128c0.288-0.175 0.578-0.341 0.862-0.528 0.619-0.407 1.235-0.822 1.85-1.245 0.124-0.086 0.238-0.224 0.343-0.363 0.030-0.040 0.024-0.174 0.015-0.256-0.005-0.037-0.063-0.077-0.097-0.080-0.058 0.002-0.115 0.018-0.17 0.046-0.836 0.39-1.624 0.966-2.378 1.666-0.176 0.164-0.32 0.419-0.478 0.631zM25.417 17.132c0.050-0.096 0.090-0.137 0.093-0.182 0.082-1.41-0.009-2.807-0.127-4.2-0.006-0.070-0.065-0.17-0.105-0.179-0.044-0.010-0.114 0.051-0.141 0.116-0.044 0.103-0.072 0.223-0.080 0.349-0.044 1.149 0.002 2.303 0.137 3.433 0.027 0.228 0.142 0.429 0.223 0.663zM6.804 13.242c0.326-0.204 0.375-0.574 0.41-0.907 0.085-0.814 0.298-1.597 0.228-2.458-0.341 1.027-0.643 2.067-0.638 3.365h-0zM14.697 31.109c-0.731-0.531-0.929-0.587-1.58-0.438 0.276 0.172 0.524 0.444 0.774 0.449 0.26 0.007 0.542 0.53 0.807-0.011h-0z"></path>
      <path d="M16.205 20.551c-0.5-0.015-0.843-0.358-1.098-1.022-0.237-0.619-0.631-0.94-0.992-1.321-0.455-0.48-0.825-1.022-0.93-1.996-0.073-0.66 0.012-1.234 0.175-1.755 0.137-0.436 0.382-0.841 0.639-1.1 0.279-0.281 0.51-0.546 0.638-1.065 0.146-0.597 0.513-0.633 0.837-0.741 0.306-0.101 0.617-0.166 0.919-0.293 0.413-0.173 0.787-0.119 1.088 0.408 0.233 0.409 0.505 0.702 0.808 0.951 0.315 0.258 0.42 0.559 0.321 1.098-0.067 0.366-0.002 0.615 0.081 0.907 0.091 0.318 0.184 0.642 0.247 0.978 0.208 1.119-0.031 2.061-0.671 2.56-0.397 0.309-0.7 0.72-0.799 1.444-0.040 0.292-0.15 0.457-0.307 0.533-0.316 0.152-0.637 0.277-0.957 0.413zM18.304 15.859c0.010-1.972-0.9-3.548-2.084-3.551-1.062 0-2.131 1.18-2.173 3.441-0.033 1.81 0.885 3.496 2.083 3.502 1.458 0.012 2.146-1.65 2.174-3.393zM14.035 17.744c0-0.253 0.015-0.382-0.002-0.499-0.157-1.071-0.259-2.132 0.097-3.163 0.026-0.074-0.033-0.227-0.053-0.343-0.070 0.037-0.154 0.045-0.207 0.116-0.588 0.793-0.851 2.696 0.166 3.889zM16.221 11.814c0.246 0.148 0.387 0.253 0.534 0.318 0.542 0.236 1.005 0.659 1.327 1.44 0.064 0.154 0.146 0.382 0.267 0.207 0.065-0.094 0.086-0.379 0.049-0.522-0.050-0.19-0.164-0.427-0.274-0.464-0.298-0.102-0.461-0.457-0.655-0.765-0.327-0.515-0.691-0.676-1.247-0.214zM16.187 19.575l-0.007-0.074c-0.156 0-0.314-0.022-0.468 0.009-0.079 0.016-0.151 0.126-0.226 0.194 0.068 0.099 0.128 0.255 0.206 0.287 0.42 0.174 0.844 0.211 1.259-0.055 0.071-0.046 0.15-0.105 0.194-0.199 0.039-0.080 0.052-0.221 0.044-0.328-0.003-0.040-0.101-0.1-0.15-0.087-0.285 0.073-0.568 0.166-0.851 0.252l-0.001 0.001zM18.337 17.553c0.291-0.089 0.421-0.358 0.438-0.773 0.013-0.349 0.009-0.699-0.009-1.048-0.005-0.092-0.083-0.174-0.127-0.261-0.065 0.101-0.196 0.236-0.184 0.296 0.118 0.605-0.129 1.146-0.117 1.783v0.001z"></path>
      <path d="M21 20.283c-0.017 0.014-0.084 0.107-0.157 0.119-0.067 0.013-0.164-0.024-0.205-0.1-0.207-0.383-0.408-0.777-0.593-1.189-0.049-0.108-0.068-0.398-0.041-0.423 0.091-0.082 0.269-0.168 0.308-0.097 0.234 0.424 0.44 0.89 0.652 1.347 0.021 0.046 0.014 0.124 0.036 0.343z"></path>
      <path d="M11.087 23.602c0.108 0.014 0.322 0.025 0.53 0.084 0.052 0.015 0.121 0.181 0.121 0.281s-0.060 0.271-0.112 0.293c-0.405 0.165-0.809 0.206-1.167-0.239-0.020-0.031-0.036-0.069-0.046-0.112s-0.014-0.088-0.011-0.133c0.008-0.066 0.071-0.159 0.113-0.164 0.156-0.021 0.312-0.010 0.572-0.010z"></path>
      <path d="M23.786 9.606l0.153 0.138c-0.043 0.128-0.070 0.333-0.133 0.37-0.292 0.176-0.591 0.316-0.896 0.419-0.088 0.028-0.215-0.113-0.296-0.23-0.093-0.135-0.038-0.428 0.080-0.457 0.345-0.087 0.693-0.154 1.092-0.24z"></path>
      <path d="M13.47 26.452c0.162 0.124 0.298 0.159 0.364 0.292 0.181 0.369 0.347 0.759 0.497 1.165 0.073 0.193 0.006 0.403-0.116 0.458-0.067 0.031-0.189-0.059-0.239-0.159-0.198-0.391-0.381-0.801-0.549-1.228-0.039-0.102 0.021-0.305 0.043-0.528z"></path>
      <path d="M19.831 11.051c0.010-0.113 0-0.242 0.032-0.292 0.044-0.065 0.137-0.119 0.182-0.084 0.061 0.048 0.101 0.18 0.143 0.284 0.117 0.289 0.234 0.579 0.346 0.876 0.050 0.133 0.117 0.274 0.121 0.417 0.005 0.132-0.044 0.304-0.105 0.394-0.034 0.051-0.173 0.018-0.207-0.053-0.224-0.468-0.493-0.905-0.513-1.542z"></path>
      <path d="M20.528 6.082c-0.049 0.478-0.068 0.829-0.124 1.166-0.035 0.182-0.103 0.342-0.194 0.461-0.064 0.085-0.176 0.073-0.267 0.104-0.007-0.139-0.034-0.284-0.018-0.415 0.047-0.407 0.111-0.809 0.167-1.212 0.004-0.031 0.003-0.065 0.009-0.096 0.045-0.244 0.141-0.429 0.296-0.328 0.078 0.051 0.114 0.274 0.132 0.321z"></path>
      <path d="M16.344 9.188c0.136 0.028 0.313 0.043 0.481 0.11 0.058 0.023 0.142 0.193 0.133 0.266-0.017 0.131-0.084 0.303-0.154 0.342-0.111 0.057-0.23 0.058-0.342 0.003-0.194-0.101-0.375-0.135-0.569-0.002-0.127 0.088-0.247-0.004-0.281-0.212-0.045-0.279 0.082-0.414 0.226-0.453 0.153-0.042 0.311-0.035 0.505-0.053z"></path>
      <path d="M19.371 22.909c-0.055 0.395-0.097 0.742-0.157 1.081-0.012 0.067-0.097 0.156-0.133 0.141-0.065-0.026-0.155-0.109-0.168-0.196-0.029-0.187-0.032-0.383-0.010-0.573 0.046-0.347 0.091-0.677 0.005-1.031-0.041-0.17-0.029-0.441 0.128-0.44 0.085 0 0.207 0.172 0.245 0.314 0.062 0.227 0.066 0.495 0.090 0.705z"></path>
      <path d="M16.983 22.808c-0.032 0.093-0.047 0.202-0.088 0.249-0.256 0.289-0.512 0.579-0.78 0.832-0.069 0.064-0.189 0.025-0.277-0.018-0.128-0.062-0.155-0.34-0.049-0.452 0.294-0.309 0.59-0.616 0.893-0.901 0.049-0.046 0.146 0.004 0.208 0.055 0.042 0.035 0.061 0.148 0.093 0.235z"></path>
      <path d="M13.728 4.242c0.041 0.040 0.12 0.075 0.13 0.138 0.101 0.613 0.199 1.229 0.28 1.85 0.022 0.172-0.117 0.268-0.21 0.165-0.293-0.324-0.476-1.524-0.305-2.026 0.018-0.050 0.061-0.075 0.105-0.127z"></path>
      <path d="M17.353 5.984c-0.088-0.097-0.184-0.146-0.197-0.23-0.014-0.091 0.032-0.246 0.081-0.318 0.215-0.316 0.44-0.613 0.675-0.89 0.079-0.091 0.243-0.156 0.303-0.084 0.143 0.165 0.068 0.398-0.032 0.568-0.134 0.23-0.267 0.472-0.421 0.657-0.118 0.14-0.27 0.2-0.41 0.297z"></path>
      <path d="M11.774 9.224l-0.214 0.333c-0.061-0.109-0.152-0.199-0.178-0.329-0.103-0.508-0.189-1.025-0.271-1.543-0.011-0.071 0.024-0.217 0.061-0.242 0.059-0.040 0.157-0.056 0.202 0 0.089 0.108 0.191 0.252 0.22 0.414 0.076 0.422 0.117 0.863 0.18 1.366z"></path>
      <path d="M9.426 17.737c-0.197 0.592-0.346 1.198-0.713 1.521-0.062 0.054-0.198-0.015-0.264-0.102-0.112-0.146 0-0.267 0.055-0.392 0.172-0.388 0.331-0.794 0.514-1.167 0.047-0.096 0.167-0.143 0.248-0.13 0.055 0.008 0.1 0.163 0.16 0.27z"></path>
      <path d="M11.649 17.787c0.103 0.098 0.177 0.127 0.191 0.191 0.023 0.105 0.035 0.27 0 0.343-0.056 0.116-0.153 0.183-0.236 0.261-0.215 0.203-0.428 0.416-0.651 0.589-0.068 0.053-0.192 0.037-0.252-0.034-0.125-0.146-0.081-0.38 0.019-0.483 0.307-0.316 0.63-0.592 0.929-0.866z"></path>
      <path d="M22.775 15.107c-0.079 0.293-0.19 0.734-0.322 1.158-0.020 0.066-0.148 0.101-0.202 0.062-0.050-0.037-0.105-0.203-0.095-0.293 0.053-0.472 0.111-0.945 0.2-1.4 0.027-0.139 0.15-0.265 0.244-0.312 0.035-0.017 0.126 0.199 0.17 0.331 0.025 0.074 0.004 0.189 0.004 0.453z"></path>
      <path d="M9.364 11.59c0.348 0.513 0.307 1.209 0.345 1.851 0.007 0.119-0.083 0.29-0.156 0.377-0.038 0.045-0.192-0.027-0.195-0.069-0.055-0.649-0.097-1.302-0.131-1.955-0.003-0.056 0.079-0.124 0.136-0.203z"></path>
      <path d="M17.502 27.464c0.058 0.025 0.116 0.056 0.172 0.092 0.209 0.159 0.42 0.314 0.624 0.489 0.097 0.083 0.194 0.186 0.264 0.318 0.080 0.153-0.011 0.447-0.124 0.407-0.38-0.135-0.75-0.322-1.034-0.788-0.042-0.069-0.041-0.241-0.027-0.356 0.008-0.065 0.081-0.109 0.126-0.164z"></path>
      <path d="M12.883 11.778c0.020 0.103 0.089 0.263 0.065 0.363-0.127 0.531-0.275 1.050-0.425 1.566-0.018 0.063-0.097 0.119-0.144 0.109-0.041-0.008-0.097-0.102-0.108-0.174-0.080-0.574 0.171-1.602 0.451-1.861 0.029-0.027 0.075-0.004 0.161-0.004z"></path>
      <path d="M23.735 20.497c-0.044-0.045-0.135-0.101-0.182-0.208-0.019-0.043 0.042-0.237 0.095-0.299 0.233-0.279 0.472-0.545 0.72-0.783 0.067-0.064 0.206-0.069 0.256 0.003 0.045 0.067 0.052 0.318 0.011 0.411-0.208 0.476-0.471 0.839-0.9 0.876z"></path>
      <path d="M22.293 24.596c-0.18-0.031-0.258-0.034-0.333-0.061-0.032-0.012-0.079-0.073-0.080-0.113-0.003-0.091 0.011-0.18 0.041-0.257 0.039-0.072 0.089-0.124 0.146-0.149 0.278-0.137 0.555-0.274 0.837-0.385 0.061-0.024 0.19 0.042 0.198 0.099 0.018 0.136-0.004 0.3-0.036 0.438-0.017 0.072-0.086 0.133-0.139 0.159-0.241 0.109-0.483 0.206-0.634 0.269z"></path>
      <path d="M13.934 21.307c-0.020 0.139-0.052 0.447-0.115 0.737-0.016 0.072-0.137 0.141-0.193 0.115s-0.121-0.177-0.12-0.271c0.006-0.537 0.022-1.075 0.055-1.609 0.007-0.117 0.097-0.219 0.149-0.328 0.062 0.108 0.163 0.203 0.179 0.327 0.035 0.277 0.028 0.568 0.044 1.030z"></path>
      <path d="M26.944 4.507c0-1.137 0.168-2 0.503-2.587 0.339-0.594 0.774-0.891 1.303-0.891s0.951 0.256 1.263 0.769c0.316 0.512 0.475 1.331 0.475 2.456s-0.168 1.975-0.503 2.55c-0.335 0.575-0.783 0.862-1.343 0.862-0.484 0-0.88-0.228-1.189-0.684-0.16-0.237-0.286-0.566-0.377-0.984-0.088-0.425-0.131-0.922-0.131-1.49zM28.733 1.123c-0.385 0-0.701 0.281-0.949 0.844-0.244 0.562-0.366 1.387-0.366 2.475s0.116 1.881 0.349 2.381c0.232 0.5 0.541 0.75 0.926 0.75 0.389 0 0.705-0.281 0.949-0.844 0.248-0.569 0.371-1.391 0.371-2.465 0-1.081-0.118-1.875-0.354-2.381-0.232-0.506-0.541-0.759-0.926-0.759z"></path>
      <path d="M31.476 7.628h-0.474v-6.562h0.474v3.018h1.858v-3.018h0.475v6.562h-0.475v-3.45h-1.858v3.45z"></path>
      <path d="M36.247 7.628h-0.074l0.497-6.562h0.189l1.2 6.065 1.195-6.065h0.189l0.497 6.562h-0.475l-0.394-5.249-1.034 5.249h-0.36l-1.046-5.184-0.383 5.184z"></path>
      <path d="M43.105 1.066c0.072 0.119 0.109 0.272 0.109 0.459 0 0.156-0.021 0.316-0.063 0.478l-1.023 3.403v2.222h-0.474v-2.015l-1.143-4.546h0.486l1.092 4.228 0.994-3.29c0.042-0.156 0.063-0.319 0.063-0.487s-0.028-0.3-0.086-0.394l0.046-0.056z"></path>
      <path d="M0.806 9.352c0.295-0.022 0.584-0.033 0.866-0.033 0.289 0 0.591 0.050 0.906 0.149 0.322 0.099 0.638 0.286 0.947 0.562 0.316 0.264 0.581 0.611 0.796 1.041 0.222 0.418 0.4 0.975 0.534 1.668s0.201 1.536 0.201 2.527c0 0.991-0.101 1.883-0.302 2.676-0.195 0.782-0.463 1.382-0.806 1.801-0.665 0.815-1.467 1.222-2.407 1.222-0.329 0-0.675-0.022-1.037-0.066h-0.504v-11.547h0.806zM0.836 20.767c0.141 0.022 0.319 0.033 0.534 0.033s0.376-0.006 0.483-0.017c0.107-0.011 0.255-0.055 0.443-0.132 0.188-0.088 0.363-0.204 0.524-0.347s0.329-0.352 0.504-0.628c0.181-0.286 0.336-0.622 0.463-1.008 0.289-0.903 0.433-2.081 0.433-3.535 0-1.035-0.077-1.927-0.232-2.676-0.154-0.76-0.332-1.322-0.534-1.685-0.195-0.363-0.433-0.65-0.715-0.859-0.282-0.22-0.507-0.347-0.675-0.38s-0.363-0.050-0.584-0.050c-0.222 0-0.436 0.017-0.645 0.050v11.233z"></path>
      <path d="M27.107 20.899h-0.131v-11.563h0.342l4.19 10.688v-10.688h0.131v11.563h-0.735l-3.797-9.581v9.581z"></path>
      <path d="M37.842 9.336h0.131v6.608c0 1.729-0.208 3.001-0.624 3.816-0.416 0.804-0.96 1.206-1.632 1.206-0.423 0-0.782-0.061-1.078-0.182-0.296-0.132-0.574-0.369-0.836-0.71-0.537-0.683-0.806-2.059-0.806-4.13v-6.608h0.836v6.591c0 2.004 0.185 3.342 0.554 4.014 0.188 0.33 0.383 0.556 0.584 0.677 0.208 0.121 0.456 0.182 0.745 0.182 0.645 0 1.158-0.385 1.541-1.156 0.389-0.782 0.584-2.021 0.584-3.717v-6.591z"></path>
      <path d="M41.409 20.899h-0.836v-11.398h-1.742v-0.165h4.331v0.165h-1.753v11.398z"></path>
    </symbol>
    <symbol id="icon-logo_sm" viewBox="0 0 61 32">
      <path d="M36.463 15.997c0 0.261-0.007 0.521 0 0.783 0.077 2.653-0.635 5.043-1.777 7.296-0.383 0.756-0.749 1.524-1.079 2.314-0.272 0.649-0.65 1.104-1.239 1.37-0.328 0.148-0.633 0.405-0.908 0.669-1.268 1.218-2.706 2.091-4.244 2.705-1.022 0.408-2.074 0.767-3.183 0.751-0.331-0.004-0.662 0.114-0.994 0.115s-0.663-0.124-0.991-0.108c-1.431 0.071-2.757-0.441-4.073-0.979-1.437-0.587-2.705-1.513-3.899-2.617-1.684-1.558-2.884-3.52-3.766-5.765-0.475-1.211-0.863-2.46-0.972-3.804-0.018-0.223-0.082-0.444-0.138-0.66-0.4-1.507-0.17-2.985 0.078-4.486 0.189-1.148 0.384-2.283 0.753-3.373 0.975-2.884 2.523-5.245 4.668-7.1 1.788-1.545 3.789-2.494 5.965-2.902 2.497-0.468 4.934-0.131 7.299 0.963 1.18 0.548 2.293 1.241 3.266 2.159 0.907 0.856 1.725 1.858 2.498 2.883 0.7 0.928 1.198 2.034 1.642 3.162 0.694 1.762 1.145 3.586 1.1 5.546-0.010 0.362-0.003 0.721-0.003 1.080zM35.504 12.427c-0.069-0.616-0.112-1.329-0.242-2.022-0.368-1.992-1.36-3.548-2.681-4.818-0.75-0.722-1.568-1.349-2.374-1.988-0.273-0.216-0.59-0.415-0.909-0.481-0.819-0.176-1.648-0.34-2.479-0.389-1.441-0.085-2.736-0.518-3.825-1.685-0.801-0.858-1.673-0.941-2.506-0.186-0.944 0.855-2.018 1.357-3.112 1.854-0.802 0.364-1.575 0.823-2.346 1.276-0.644 0.379-1.020 0.971-1.011 1.867 0.005 0.503-0.193 0.923-0.593 1.201-0.334 0.234-0.654 0.492-0.96 0.773-0.853 0.781-1.518 1.662-1.662 3.027-0.113 1.080-0.394 2.148-1.031 3.038-0.213 0.306-0.344 0.677-0.38 1.069-0.059 0.807-0.035 1.625-0.017 2.437 0.005 0.217 0.086 0.451 0.181 0.642 0.22 0.452 0.459 0.891 0.717 1.315 0.624 1.011 1.168 2.046 1.293 3.329 0.121 1.244 0.638 2.257 1.511 3.030 1.265 1.121 2.484 2.311 3.768 3.402 0.69 0.588 1.429 1.102 2.339 1.221s1.802 0.408 2.618 0.941c0.171 0.107 0.359 0.174 0.552 0.197 1.151 0.144 2.217-0.187 3.228-0.814 0.317-0.197 0.643-0.375 0.972-0.546 0.79-0.412 1.666-0.682 2.354-1.255 0.766-0.639 1.584-0.923 2.463-1.101 0.38-0.077 0.69-0.26 0.937-0.588 0.295-0.39 0.568-0.802 0.875-1.179 0.318-0.389 0.547-0.802 0.603-1.356 0.085-0.849 0.397-1.599 0.794-2.319 0.671-1.217 1.052-2.562 1.25-3.992 0.052-0.375 0.082-0.692-0.078-1.023-0.462-0.953-0.273-2.035-0.419-3.049-0.074-0.548 0.096-1.148 0.168-1.832l-0.002 0.001zM29.948 2.909c-0.195-0.251-0.257-0.364-0.345-0.434-0.159-0.128-0.333-0.233-0.503-0.344-1.449-0.95-3.036-1.412-4.658-1.743-0.326-0.067-0.668-0.037-1.001-0.022-0.087 0.004-0.19 0.102-0.245 0.19-0.025 0.040 0.031 0.18 0.079 0.248 0.361 0.5 0.831 0.878 1.361 1.092 0.915 0.383 1.878 0.594 2.851 0.623 0.412 0.013 0.823 0.104 1.233 0.169 0.35 0.058 0.699 0.127 1.226 0.223zM17.636 30.284c-0.973-0.925-1.825-1.752-2.693-2.556-0.718-0.666-1.452-1.309-2.186-1.952-0.082-0.072-0.213-0.070-0.393-0.124 0.885 1.728 3.839 4.354 5.272 4.632zM11.083 8.699c0.587-0.521 1.129-1.070 1.725-1.524 0.835-0.633 1.155-1.421 0.957-2.773-0.593 0.564-1.015 1.244-1.473 1.861-0.483 0.651-0.841 1.426-1.244 2.155-0.031 0.059 0.019 0.175 0.034 0.281zM30.865 28.421c-0.547-0.044-1.098 0.069-1.441 0.412-0.651 0.652-1.426 0.98-2.215 1.306-0.414 0.171-0.804 0.422-1.194 0.661-0.054 0.033-0.064 0.209-0.053 0.313 0.004 0.035 0.15 0.092 0.21 0.069 0.708-0.281 1.439-0.507 2.11-0.883 0.822-0.459 1.594-1.040 2.381-1.579 0.082-0.054 0.126-0.181 0.203-0.299zM9.96 19.381c-0.157 0.54-0.126 0.838-0.027 1.156 0.274 0.883 0.441 1.814 0.935 2.585 0.183 0.286 0.221 0.925 0.559 0.787 0.298-0.12-0.051-0.627-0.071-0.968-0.078-1.304-0.667-2.355-1.396-3.561zM15.268 3.142l0.073 0.129c0.409-0.176 0.822-0.343 1.226-0.532 0.88-0.41 1.756-0.829 2.63-1.254 0.176-0.087 0.338-0.225 0.488-0.366 0.042-0.040 0.035-0.175 0.021-0.258-0.007-0.037-0.090-0.078-0.138-0.080-0.082 0.002-0.163 0.018-0.242 0.047-1.188 0.393-2.309 0.974-3.381 1.68-0.251 0.165-0.454 0.422-0.679 0.636zM36.136 17.147c0.072-0.097 0.128-0.138 0.132-0.183 0.116-1.421-0.014-2.829-0.181-4.233-0.008-0.071-0.092-0.172-0.15-0.18-0.063-0.010-0.161 0.051-0.2 0.117-0.063 0.104-0.102 0.225-0.114 0.352-0.063 1.158 0.003 2.321 0.195 3.46 0.038 0.23 0.201 0.432 0.317 0.668zM9.673 13.227c0.464-0.206 0.533-0.578 0.583-0.915 0.121-0.82 0.424-1.61 0.324-2.477-0.485 1.035-0.915 2.084-0.906 3.392h-0zM20.896 31.234c-1.040-0.535-1.321-0.591-2.247-0.441 0.392 0.173 0.745 0.448 1.1 0.452 0.37 0.006 0.771 0.534 1.147-0.011h-0z"></path>
      <path d="M23.040 20.593c-0.711-0.015-1.199-0.361-1.561-1.030-0.337-0.624-0.897-0.947-1.41-1.332-0.647-0.484-1.173-1.031-1.323-2.012-0.104-0.665 0.017-1.244 0.249-1.769 0.195-0.439 0.543-0.847 0.908-1.108 0.396-0.283 0.725-0.55 0.907-1.073 0.207-0.602 0.729-0.638 1.191-0.747 0.435-0.102 0.877-0.167 1.306-0.295 0.587-0.174 1.119-0.12 1.547 0.411 0.331 0.412 0.718 0.708 1.149 0.958 0.448 0.26 0.597 0.564 0.456 1.107-0.096 0.369-0.003 0.62 0.115 0.914 0.129 0.321 0.262 0.647 0.351 0.986 0.295 1.128-0.044 2.077-0.954 2.58-0.564 0.311-0.995 0.726-1.136 1.456-0.056 0.294-0.214 0.461-0.437 0.537-0.45 0.153-0.906 0.28-1.36 0.417zM26.024 15.864c0.015-1.987-1.28-3.576-2.963-3.579-1.511 0-3.030 1.189-3.089 3.469-0.047 1.824 1.259 3.524 2.961 3.53 2.073 0.012 3.051-1.663 3.091-3.42zM19.955 17.764c0-0.255 0.021-0.385-0.003-0.503-0.223-1.079-0.368-2.148 0.138-3.188 0.037-0.075-0.048-0.229-0.076-0.346-0.099 0.037-0.219 0.045-0.295 0.117-0.837 0.799-1.21 2.718 0.236 3.92zM23.062 11.787c0.35 0.149 0.55 0.255 0.759 0.321 0.771 0.238 1.429 0.664 1.887 1.451 0.090 0.155 0.207 0.385 0.38 0.209 0.092-0.094 0.122-0.382 0.069-0.526-0.071-0.191-0.234-0.43-0.39-0.468-0.424-0.103-0.656-0.46-0.932-0.771-0.464-0.519-0.983-0.682-1.773-0.215zM23.014 19.609l-0.010-0.075c-0.222 0-0.446-0.022-0.665 0.009-0.113 0.016-0.215 0.127-0.321 0.195 0.097 0.1 0.181 0.257 0.293 0.29 0.598 0.175 1.2 0.213 1.789-0.055 0.101-0.046 0.213-0.106 0.276-0.201 0.056-0.080 0.074-0.223 0.063-0.331-0.004-0.040-0.144-0.101-0.213-0.088-0.405 0.074-0.808 0.167-1.21 0.254l-0.002 0.001zM26.070 17.571c0.414-0.089 0.599-0.361 0.623-0.779 0.018-0.352 0.014-0.705-0.013-1.056-0.007-0.093-0.118-0.175-0.181-0.263-0.092 0.101-0.279 0.238-0.262 0.299 0.168 0.609-0.183 1.155-0.167 1.797v0.001z"></path>
      <path d="M29.858 20.323c-0.024 0.014-0.12 0.107-0.224 0.12-0.095 0.013-0.233-0.024-0.291-0.101-0.294-0.386-0.58-0.783-0.843-1.199-0.069-0.109-0.097-0.401-0.058-0.426 0.129-0.083 0.382-0.17 0.439-0.098 0.333 0.427 0.626 0.897 0.927 1.357 0.029 0.046 0.020 0.125 0.051 0.346z"></path>
      <path d="M15.763 23.668c0.154 0.014 0.458 0.025 0.754 0.084 0.074 0.015 0.173 0.183 0.173 0.283s-0.085 0.274-0.159 0.295c-0.576 0.167-1.15 0.207-1.66-0.241-0.029-0.031-0.051-0.070-0.065-0.112s-0.020-0.089-0.016-0.134c0.011-0.067 0.1-0.16 0.16-0.165 0.221-0.022 0.443-0.010 0.812-0.010z"></path>
      <path d="M33.818 9.562l0.218 0.139c-0.062 0.129-0.1 0.336-0.19 0.373-0.415 0.177-0.841 0.319-1.273 0.423-0.125 0.028-0.305-0.114-0.42-0.232-0.132-0.136-0.053-0.431 0.114-0.461 0.491-0.088 0.985-0.155 1.552-0.242z"></path>
      <path d="M19.152 26.541c0.23 0.125 0.423 0.16 0.518 0.294 0.258 0.372 0.494 0.764 0.706 1.174 0.104 0.195 0.009 0.406-0.165 0.462-0.096 0.031-0.269-0.060-0.339-0.16-0.281-0.394-0.542-0.807-0.78-1.238-0.055-0.102 0.030-0.308 0.061-0.532z"></path>
      <path d="M28.195 11.018c0.014-0.114 0-0.244 0.046-0.294 0.062-0.066 0.195-0.12 0.259-0.085 0.087 0.049 0.144 0.182 0.204 0.286 0.167 0.291 0.332 0.584 0.491 0.883 0.071 0.134 0.167 0.276 0.173 0.42 0.007 0.133-0.063 0.306-0.149 0.398-0.048 0.051-0.246 0.018-0.294-0.053-0.319-0.471-0.701-0.913-0.729-1.554z"></path>
      <path d="M29.187 6.010c-0.069 0.481-0.097 0.836-0.177 1.175-0.050 0.183-0.146 0.345-0.276 0.465-0.091 0.086-0.251 0.073-0.38 0.105-0.010-0.14-0.048-0.286-0.026-0.419 0.067-0.41 0.157-0.815 0.238-1.222 0.006-0.032 0.004-0.065 0.012-0.096 0.064-0.245 0.201-0.432 0.421-0.331 0.111 0.051 0.163 0.276 0.188 0.323z"></path>
      <path d="M23.238 9.141c0.194 0.028 0.445 0.043 0.684 0.111 0.082 0.023 0.203 0.194 0.188 0.268-0.025 0.132-0.119 0.306-0.219 0.345-0.158 0.057-0.327 0.058-0.486 0.003-0.276-0.102-0.533-0.136-0.808-0.002-0.181 0.088-0.351-0.004-0.399-0.214-0.064-0.281 0.117-0.417 0.321-0.456 0.217-0.042 0.442-0.035 0.719-0.054z"></path>
      <path d="M27.541 22.97c-0.078 0.398-0.138 0.748-0.223 1.089-0.017 0.067-0.138 0.157-0.189 0.142-0.092-0.026-0.221-0.11-0.239-0.198-0.041-0.189-0.046-0.386-0.014-0.577 0.065-0.35 0.129-0.682 0.007-1.039-0.058-0.171-0.041-0.444 0.182-0.444 0.12 0 0.294 0.173 0.348 0.316 0.088 0.229 0.094 0.499 0.128 0.71z"></path>
      <path d="M24.146 22.868c-0.045 0.093-0.067 0.204-0.126 0.251-0.363 0.291-0.727 0.584-1.11 0.838-0.098 0.065-0.269 0.025-0.394-0.018-0.183-0.063-0.22-0.342-0.069-0.455 0.418-0.312 0.839-0.621 1.27-0.908 0.069-0.046 0.207 0.004 0.296 0.055 0.060 0.035 0.086 0.149 0.132 0.237z"></path>
      <path d="M19.517 4.155c0.059 0.040 0.17 0.075 0.185 0.139 0.144 0.618 0.283 1.238 0.398 1.864 0.032 0.174-0.166 0.27-0.298 0.166-0.417-0.327-0.677-1.536-0.434-2.042 0.025-0.050 0.087-0.075 0.149-0.128z"></path>
      <path d="M24.672 5.911c-0.126-0.097-0.261-0.147-0.279-0.231-0.020-0.091 0.045-0.247 0.116-0.321 0.306-0.318 0.626-0.618 0.959-0.897 0.112-0.092 0.345-0.157 0.431-0.085 0.204 0.166 0.097 0.401-0.045 0.573-0.19 0.231-0.38 0.475-0.599 0.662-0.168 0.141-0.384 0.201-0.582 0.299z"></path>
      <path d="M16.74 9.177l-0.305 0.335c-0.087-0.11-0.216-0.201-0.253-0.331-0.146-0.512-0.269-1.033-0.385-1.555-0.016-0.072 0.034-0.219 0.086-0.244 0.085-0.040 0.224-0.056 0.288 0 0.127 0.109 0.271 0.254 0.313 0.418 0.109 0.425 0.166 0.87 0.256 1.377z"></path>
      <path d="M13.401 17.757c-0.28 0.596-0.492 1.207-1.013 1.533-0.088 0.055-0.282-0.015-0.375-0.102-0.159-0.147 0-0.27 0.078-0.395 0.245-0.392 0.471-0.8 0.73-1.177 0.067-0.097 0.237-0.144 0.353-0.131 0.079 0.008 0.143 0.164 0.228 0.272z"></path>
      <path d="M16.562 17.808c0.146 0.098 0.252 0.128 0.272 0.192 0.032 0.106 0.049 0.272 0 0.346-0.080 0.117-0.217 0.184-0.335 0.263-0.306 0.204-0.608 0.42-0.926 0.594-0.097 0.053-0.273 0.037-0.359-0.035-0.178-0.147-0.115-0.383 0.028-0.487 0.437-0.318 0.896-0.596 1.321-0.873z"></path>
      <path d="M32.381 15.106c-0.112 0.295-0.27 0.74-0.458 1.167-0.029 0.066-0.21 0.102-0.287 0.063-0.071-0.037-0.149-0.205-0.135-0.295 0.075-0.475 0.158-0.952 0.285-1.411 0.039-0.14 0.213-0.267 0.347-0.314 0.050-0.017 0.18 0.2 0.242 0.334 0.035 0.075 0.006 0.191 0.006 0.457z"></path>
      <path d="M13.314 11.562c0.495 0.517 0.436 1.218 0.491 1.866 0.010 0.12-0.118 0.292-0.221 0.379-0.054 0.046-0.273-0.028-0.278-0.070-0.078-0.654-0.138-1.312-0.186-1.971-0.004-0.056 0.112-0.125 0.194-0.205z"></path>
      <path d="M24.883 27.56c0.083 0.026 0.165 0.057 0.245 0.093 0.297 0.16 0.597 0.316 0.887 0.493 0.138 0.083 0.276 0.188 0.375 0.321 0.114 0.154-0.016 0.451-0.176 0.41-0.54-0.136-1.067-0.325-1.47-0.794-0.060-0.069-0.058-0.243-0.039-0.358 0.011-0.065 0.116-0.11 0.179-0.165z"></path>
      <path d="M18.316 11.751c0.029 0.104 0.127 0.265 0.092 0.366-0.181 0.536-0.391 1.059-0.604 1.578-0.026 0.064-0.138 0.12-0.204 0.11-0.058-0.008-0.138-0.103-0.153-0.175-0.113-0.579 0.244-1.615 0.641-1.876 0.041-0.027 0.107-0.004 0.228-0.004z"></path>
      <path d="M33.746 20.539c-0.062-0.046-0.191-0.102-0.259-0.209-0.027-0.043 0.060-0.239 0.135-0.301 0.332-0.281 0.671-0.549 1.024-0.789 0.095-0.065 0.293-0.069 0.363 0.003 0.065 0.067 0.074 0.321 0.016 0.414-0.296 0.48-0.669 0.846-1.279 0.883z"></path>
      <path d="M31.696 24.67c-0.256-0.031-0.367-0.034-0.474-0.062-0.045-0.012-0.112-0.074-0.113-0.114-0.005-0.091 0.016-0.182 0.058-0.259 0.055-0.073 0.127-0.125 0.207-0.15 0.395-0.138 0.79-0.276 1.19-0.388 0.087-0.024 0.27 0.043 0.282 0.1 0.026 0.137-0.005 0.303-0.051 0.441-0.024 0.073-0.122 0.134-0.197 0.16-0.343 0.11-0.687 0.207-0.902 0.272z"></path>
      <path d="M19.811 21.355c-0.028 0.14-0.074 0.45-0.163 0.743-0.022 0.073-0.195 0.142-0.274 0.116s-0.172-0.178-0.17-0.274c0.008-0.541 0.031-1.083 0.079-1.622 0.010-0.117 0.138-0.221 0.212-0.331 0.088 0.109 0.232 0.205 0.254 0.329 0.050 0.279 0.039 0.573 0.062 1.039z"></path>
      <path d="M38.308 4.422c0-1.146 0.238-2.016 0.715-2.608 0.482-0.598 1.1-0.898 1.853-0.898s1.352 0.258 1.796 0.775c0.45 0.516 0.675 1.342 0.675 2.475s-0.238 1.99-0.715 2.57c-0.477 0.579-1.113 0.869-1.91 0.869-0.688 0-1.251-0.23-1.69-0.69-0.228-0.239-0.406-0.57-0.536-0.992-0.125-0.428-0.187-0.929-0.187-1.502zM40.852 1.012c-0.547 0-0.997 0.283-1.349 0.85-0.347 0.567-0.52 1.398-0.52 2.494s0.165 1.896 0.496 2.4c0.331 0.504 0.769 0.756 1.316 0.756 0.553 0 1.002-0.283 1.349-0.85 0.352-0.573 0.528-1.401 0.528-2.485 0-1.090-0.168-1.89-0.504-2.4-0.331-0.51-0.769-0.765-1.316-0.765z"></path>
      <path d="M44.752 7.569h-0.674v-6.614h0.674v3.042h2.641v-3.042h0.675v6.614h-0.675v-3.477h-2.641v3.477z"></path>
      <path d="M51.534 7.569h-0.106l0.707-6.614h0.268l1.707 6.113 1.698-6.113h0.268l0.707 6.614h-0.675l-0.561-5.291-1.471 5.291h-0.512l-1.487-5.225-0.544 5.225z"></path>
      <path d="M61.286 0.955c0.103 0.12 0.154 0.274 0.154 0.463 0 0.157-0.030 0.318-0.089 0.482l-1.455 3.43v2.239h-0.675v-2.031l-1.625-4.582h0.691l1.552 4.261 1.414-3.316c0.060-0.157 0.089-0.321 0.089-0.491s-0.041-0.302-0.122-0.397l0.065-0.057z"></path>
      <path d="M1.146 9.306c0.42-0.022 0.831-0.033 1.232-0.033 0.41 0 0.84 0.050 1.289 0.15 0.458 0.1 0.907 0.289 1.346 0.566 0.449 0.266 0.826 0.616 1.131 1.049 0.315 0.422 0.568 0.982 0.759 1.682s0.286 1.548 0.286 2.547-0.143 1.898-0.43 2.697c-0.277 0.788-0.659 1.393-1.146 1.815-0.945 0.821-2.086 1.232-3.422 1.232-0.468 0-0.959-0.022-1.475-0.067h-0.716v-11.638h1.146zM1.189 20.811c0.2 0.022 0.453 0.033 0.759 0.033s0.535-0.006 0.687-0.017c0.153-0.011 0.363-0.055 0.63-0.133 0.267-0.089 0.516-0.205 0.745-0.35s0.468-0.355 0.716-0.633c0.258-0.289 0.477-0.627 0.659-1.016 0.41-0.91 0.616-2.098 0.616-3.563 0-1.043-0.11-1.942-0.329-2.697-0.22-0.766-0.473-1.332-0.759-1.698-0.277-0.366-0.616-0.655-1.017-0.866-0.401-0.222-0.721-0.35-0.959-0.383s-0.516-0.050-0.831-0.050c-0.315 0-0.621 0.017-0.917 0.050v11.321z"></path>
      <path d="M38.54 20.944h-0.186v-11.654h0.487l5.957 10.772v-10.772h0.186v11.654h-1.045l-5.399-9.656v9.656z"></path>
      <path d="M53.803 9.29h0.186v6.66c0 1.743-0.296 3.025-0.888 3.846-0.592 0.81-1.365 1.215-2.32 1.215-0.601 0-1.112-0.061-1.532-0.183-0.42-0.133-0.816-0.372-1.189-0.716-0.764-0.688-1.146-2.076-1.146-4.162v-6.66h1.189v6.643c0 2.020 0.263 3.369 0.788 4.046 0.267 0.333 0.544 0.561 0.831 0.683 0.296 0.122 0.649 0.183 1.060 0.183 0.916 0 1.647-0.388 2.191-1.165 0.554-0.788 0.831-2.037 0.831-3.746v-6.643z"></path>
      <path d="M58.874 20.944h-1.189v-11.488h-2.477v-0.167h6.158v0.167h-2.492v11.488z"></path>
    </symbol>
    <symbol id="icon-chevron-double-up" viewBox="0 0 80 80">
<path d="M41.17 11.777l31.76 31.76 7.070-7.070-31.76-31.757c-2.106-2.102-5.013-3.402-8.223-3.402s-6.118 1.3-8.224 3.402l-31.776 31.756 7.070 7.070 31.777-31.76c0.295-0.295 0.703-0.478 1.153-0.478s0.858 0.183 1.153 0.478v0z"></path>
<path d="M72.93 76.667l7.070-7.060-36.447-36.45c-0.905-0.905-2.155-1.464-3.535-1.464s-2.63 0.559-3.535 1.464l-36.467 36.45 7.070 7.060 32.93-32.913z"></path>
</symbol>
  </defs>
</svg>